<svg width="838" height="596" viewBox="0 0 838 596" fill="none" xmlns="http://www.w3.org/2000/svg">
<path fill-rule="evenodd" clip-rule="evenodd" d="M438.307 224.329C437.656 223.392 436.498 224.506 436.983 225.182C437.424 224.898 437.866 224.613 438.307 224.329ZM456.22 229.534C455.492 229.172 455.244 229.743 454.957 230.4C454.873 230.593 454.786 230.794 454.682 230.981C455.335 231.34 455.637 230.709 455.943 230.07C456.032 229.885 456.122 229.698 456.22 229.534ZM443.605 207.053C442.143 205.188 442.036 205.814 441.914 207.939C442.197 207.791 442.479 207.644 442.761 207.495C443.043 207.348 443.325 207.2 443.605 207.053ZM643.473 106.184C641.631 107.046 641.435 107.672 642.924 108.726C643.101 107.906 643.231 107.304 643.473 106.184ZM437.659 193.146C438.093 194.571 439.876 194.878 439.876 193.146H437.659ZM575.66 119.708C576.722 120.046 577.264 120.219 577.742 120.11C578.239 119.996 578.668 119.577 579.543 118.72C579.112 118.83 578.726 118.929 578.355 119.023C578.057 119.099 577.77 119.171 577.48 119.245C576.921 119.387 576.349 119.533 575.66 119.708ZM526.399 265.783C525.77 264.897 525.142 264.011 524.515 263.125C524.303 263.776 524.09 264.428 523.879 265.08L523.877 265.084L523.721 265.564C524.613 265.637 525.506 265.71 526.399 265.783ZM653.684 84.3981C653.435 85.5816 653.311 86.1668 653.546 86.5015C653.774 86.8288 654.345 86.9161 655.473 87.09L654.626 85.8158L654.52 85.6559C654.261 85.2674 653.991 84.8609 653.684 84.3981ZM643.718 88.1004C643.641 87.7152 643.563 87.3291 643.484 86.9439L643.472 86.8851C643.398 86.5194 643.323 86.1538 643.249 85.7873C643.115 86.3758 642.605 86.3439 642.11 86.3121C641.683 86.2852 641.267 86.2591 641.108 86.6288C640.323 88.4587 642.819 88.2106 643.718 88.1004ZM453.934 224.644C453.387 223.561 453.266 223.477 452.073 223.25C452.38 224.331 452.379 225.175 452.377 226.257V226.481C454.327 226.205 454.94 226.063 454.976 223.989L453.934 224.644ZM448.245 228.47C447.988 229.429 447.259 229.197 446.638 228.999C446.074 228.819 445.599 228.668 445.642 229.456C445.617 229.001 447.88 231.993 447.751 231.897C448.89 232.754 449.553 232.674 450.844 231.689C449.003 231.62 448.791 230.701 448.506 229.467C448.433 229.152 448.356 228.817 448.245 228.47ZM657.922 87.2042C657.521 88.1265 657.119 89.0497 656.717 89.972L656.629 90.1761C656.257 91.0306 655.886 91.8852 655.514 92.739C655.345 93.1267 655.215 93.4686 655.101 93.7641C654.568 95.1631 654.423 95.5426 652.473 94.9297C652.539 94.8154 652.699 94.5893 652.899 94.3061V94.3053C653.502 93.4523 654.47 92.0803 654.363 91.6648C654.262 91.2739 653.301 90.7907 652.43 90.3532C651.892 90.0822 651.388 89.8292 651.144 89.6259C650.437 89.0383 650.18 88.5028 649.909 87.9364C649.749 87.6034 649.583 87.2581 649.317 86.8859C649.602 85.9522 649.381 85.5155 648.652 85.5783C648.443 86.1423 648.233 86.7055 648.023 87.2687L648.01 87.3046L647.847 87.7421C647.885 88.6097 648.315 88.9411 648.821 89.3305C649.21 89.63 649.643 89.963 649.975 90.6005L650.039 90.7221C650.522 91.6452 650.66 91.9113 650.584 92.0795C650.553 92.1472 650.486 92.1986 650.392 92.2713C650.198 92.4223 649.886 92.6631 649.534 93.3266C649.21 93.938 648.985 94.6081 648.767 95.2594C648.35 96.4992 647.956 97.6738 646.942 98.2582C647.773 98.623 648.603 98.9879 649.434 99.3519C647.495 101.481 651.529 100.444 652.196 100.237L652.194 100.242L652.192 100.246C651.511 101.692 650.83 103.137 650.149 104.584C648.637 103.737 647.691 102.329 646.75 100.929C646.419 100.437 646.089 99.9445 645.734 99.4784C644.698 101.405 643.661 103.332 642.625 105.259C643.097 105.216 643.569 105.171 644.041 105.128C644.601 105.077 645.16 105.025 645.718 104.973C645.686 105.035 645.593 105.178 645.471 105.367L645.47 105.367C645.051 106.015 644.279 107.203 644.367 107.524C644.575 108.287 645.403 108.511 646.214 108.731C647.201 108.999 648.163 109.259 647.95 110.472C647.899 110.755 644.753 113.928 644.214 114.234C644.546 114.383 644.84 114.488 645.092 114.578C646.039 114.915 646.391 115.041 645.943 116.514C645.209 116.071 644.475 115.627 643.741 115.183C643.603 115.43 643.461 115.676 643.319 115.923L643.318 115.923C642.812 116.795 642.305 117.673 641.994 118.631C642.07 119.435 641.927 120.196 641.563 120.916C641.13 121.56 640.643 122.161 640.101 122.718C639.672 123.848 639.534 130.019 640.051 131.025C641.205 129.534 643.785 132.166 639.431 132.166C639.068 132.166 638.778 132.152 638.542 132.14C637.542 132.09 637.514 132.089 636.923 133.444C636.35 134.762 636.04 135.912 637.665 136.039C636.684 137.973 636.66 139.551 636.63 141.427C636.624 141.886 636.617 142.362 636.595 142.866C636.525 144.475 636.16 146.075 635.799 147.662C635.693 148.125 635.588 148.587 635.49 149.049C635.684 148.771 635.877 148.494 636.071 148.215C636.264 147.938 636.457 147.66 636.651 147.382C637.506 149.206 637.125 150.794 636.687 152.62C636.591 153.019 636.492 153.43 636.404 153.857C635.782 153.037 635.474 153.527 635.149 154.045C634.908 154.428 634.658 154.827 634.263 154.714C633.148 154.396 633.185 154.127 633.244 153.705C633.285 153.413 633.336 153.047 633.022 152.54C632.877 152.307 632.767 152.109 632.67 151.936C632.326 151.318 632.158 151.017 631.197 150.505C630.029 149.882 628.23 149.689 626.625 149.516C625.99 149.448 625.386 149.383 624.863 149.296C621.802 148.786 618.737 148.653 615.642 148.518L615.518 148.512C603.773 148.003 592.069 147.872 580.325 148.518C569.521 149.112 558.455 150.627 547.86 152.679C547.105 152.825 546.351 152.971 545.598 153.117C535.104 155.141 524.818 157.125 514.625 160.573C513.685 160.891 512.745 161.363 511.805 161.834V161.835C510.633 162.422 509.461 163.01 508.291 163.3C507.467 163.505 506.641 163.624 505.809 163.744C504.622 163.916 503.423 164.089 502.195 164.515C499.431 165.475 496.613 166.307 493.795 167.138C491.519 167.81 489.241 168.483 486.991 169.222C485.55 169.696 484.078 170.149 482.597 170.606C478.496 171.867 474.319 173.152 470.526 174.967C469.389 175.511 468.305 176.153 467.22 176.796C466.165 177.421 465.109 178.047 464.003 178.582C463.54 178.808 463.008 179.028 462.446 179.26C460.449 180.086 458.094 181.06 457.223 182.907C456.788 183.829 456.862 184.497 457.132 185.453C457.633 187.223 458.035 187.184 459.25 187.065C459.353 187.055 459.46 187.045 459.575 187.034C460.864 186.921 462.392 186.247 463.844 185.607C464.699 185.23 465.526 184.865 466.263 184.632C471.709 182.916 477.22 181.543 482.758 180.168C486.939 179.131 491.127 177.756 495.306 176.385C501.068 174.495 506.814 172.609 512.503 171.618C515.426 171.108 518.273 170.159 521.124 169.209C523.948 168.267 526.777 167.324 529.69 166.805C530.107 166.731 530.783 166.487 531.541 166.214C533.111 165.646 535.033 164.952 535.744 165.379C535.931 165.491 536.299 166.429 536.595 167.182C536.741 167.553 536.869 167.879 536.948 168.038C537.813 169.765 538.803 171.432 539.964 172.979C542.533 176.403 545.744 179.338 548.928 182.247L548.928 182.248C550.081 183.301 551.229 184.351 552.343 185.418C555.854 188.788 559.028 192.414 562.214 196.053V196.053C563.369 197.372 564.525 198.692 565.698 200.002C565.907 199.761 566.115 199.52 566.322 199.279L566.848 198.669C566.476 201.533 568.421 203.663 570.219 205.631C570.294 205.714 570.37 205.797 570.445 205.88C570.525 205.966 570.603 206.053 570.681 206.139C572.942 208.649 574.762 211.009 576.545 213.871C577.56 215.498 578.77 216.985 579.968 218.456C580.499 219.107 581.027 219.756 581.535 220.412C582.48 221.637 583.242 223.008 584.008 224.387C584.559 225.379 585.113 226.375 585.739 227.323C587.047 229.308 588.347 231.306 589.648 233.304C591.761 236.551 593.873 239.797 596.017 242.978C597.648 245.397 598.936 248.118 600.227 250.871C600.536 251.53 601.031 252.397 601.574 253.344V253.345C602.83 255.538 604.333 258.164 604.333 259.644C604.259 259.991 604.462 260.923 604.675 261.899C605.098 263.836 605.557 265.942 603.957 263.984C603.848 264.152 603.74 264.321 603.631 264.489L603.472 264.735C603.366 264.899 603.26 265.063 603.154 265.227C603.037 265.407 602.92 265.587 602.803 265.767C603.462 265.491 604.119 265.215 604.778 264.939C603.518 266.08 604.535 266.595 605.481 267.072C606.035 267.352 606.564 267.619 606.594 267.993C606.442 268.14 606.29 268.286 606.138 268.432L605.596 268.955C605.028 270.125 604.289 270.277 603.38 269.41C602.964 269.436 602.686 269.354 602.423 269.277C602.054 269.167 601.715 269.067 601.062 269.285C601.526 270.009 602.048 270.219 602.535 270.414C603.166 270.668 603.737 270.898 604.042 272.197C604.425 273.828 603.525 274.428 602.33 275.224C602.009 275.438 601.666 275.666 601.323 275.932V275.93L601.28 275.923C601.368 274.646 600.745 273.705 599.623 273.11V275.62C599.931 275.677 600.24 275.733 600.548 275.789L600.556 275.791L601.28 275.923C601.279 275.938 601.278 275.953 601.276 275.968L601.323 275.932C601.058 276.943 600.285 276.757 599.36 276.535C599.197 276.496 599.031 276.456 598.861 276.421C596.866 276.01 594.711 275.312 592.671 274.652C592.032 274.445 591.403 274.242 590.794 274.051C585.279 272.332 579.722 270.882 574.02 269.706C564.339 267.709 554.716 267.268 545.016 266.823H545.015C541.679 266.67 538.334 266.516 534.975 266.299C534.992 266.227 535.008 266.159 535.024 266.095C535.189 265.409 535.257 265.13 535.215 264.868C535.187 264.689 535.108 264.518 534.974 264.229C534.955 264.188 534.935 264.143 534.912 264.096C535.121 264.549 534.748 264.588 534.371 264.627C533.798 264.687 533.215 264.748 534.657 266.271C530.889 266.888 526.932 266.837 523.001 266.786C520.568 266.755 518.145 266.724 515.78 266.851C515.844 266.71 515.927 266.563 516.008 266.416C516.299 265.897 516.594 265.369 516.112 265.007C514.013 268.042 508.392 267.97 503.594 267.908C501.697 267.884 499.927 267.861 498.556 268.033C496.9 268.241 495.256 268.56 493.611 268.878C492.434 269.107 491.258 269.335 490.077 269.522C489.88 269.554 489.681 269.585 489.483 269.615C488.29 269.801 487.092 269.988 485.926 270.303C485.5 270.418 484.977 270.654 484.427 270.903C483.36 271.386 482.186 271.916 481.404 271.704C482.604 269.286 482.019 269.985 481.453 270.661C481.199 270.964 480.949 271.262 480.865 271.274C480.701 271.298 480.514 271.329 480.309 271.362C479.485 271.495 478.386 271.673 477.437 271.673C477.994 269.438 478.715 267.276 479.435 265.115C480.462 262.034 481.487 258.956 482.036 255.675C482.107 255.252 482.193 254.799 482.282 254.323V254.322C482.932 250.879 483.798 246.29 480.775 244.123C479.276 243.048 477.017 242.643 475.057 242.291H475.056C474.55 242.2 474.064 242.113 473.616 242.018C472.871 241.862 471.952 241.756 470.978 241.643C468.822 241.395 466.393 241.114 464.959 240.183C464.348 239.785 463.918 239.4 463.505 239.031C462.822 238.418 462.189 237.851 460.86 237.346C460.374 237.162 459.94 236.978 459.537 236.808C457.903 236.114 456.78 235.638 454.788 236.242C454.95 236.04 455.121 235.847 455.288 235.659C456.164 234.673 456.896 233.849 455.231 232.763C454.907 232.553 454.46 232.54 454.021 232.526C453.357 232.505 452.713 232.486 452.542 231.79C451.464 232.552 451.363 233.207 451.232 234.062C451.184 234.374 451.132 234.712 451.026 235.093C451.062 235.695 451.221 236.27 451.503 236.815L450.506 237.217L449.168 237.755C449.463 236.962 449.065 236.924 448.634 236.884C448.343 236.857 448.037 236.828 447.921 236.564C447.602 235.842 447.659 234.838 447.71 233.935C447.728 233.617 447.745 233.312 447.745 233.036C446.14 233.543 444.462 234.17 443.76 235.84C442.205 234.912 442.37 234.669 443.007 233.735C443.174 233.49 443.374 233.197 443.583 232.831C441.934 232.441 441.584 233.29 441.334 234.656C440.709 234.463 440.083 234.27 439.458 234.077L439.439 234.071L438.722 233.85C440.684 233.836 441.155 232.303 441.202 230.638C440.873 230.745 440.545 230.852 440.216 230.959L440.206 230.962C439.775 231.102 439.343 231.243 438.911 231.383L438.441 233.8C437.348 234.726 434.663 233.289 433.422 232.625L433.421 232.625C433.297 232.558 433.189 232.501 433.097 232.452L432.78 232.288C429.482 230.583 428.28 229.961 428.763 225.92C428.936 224.482 429.193 223.041 429.451 221.597C429.819 219.536 430.188 217.471 430.308 215.405C430.509 211.963 430.179 208.31 429.863 204.828C429.821 204.363 429.779 203.902 429.739 203.444C429.494 200.661 429.194 197.892 428.893 195.125V195.125C428.381 190.413 427.871 185.709 427.635 180.949C427.581 179.853 427.526 178.758 427.47 177.662L427.47 177.661C427.318 174.665 427.165 171.67 427.048 168.673C427.026 168.136 426.978 167.59 426.931 167.052C426.691 164.327 426.467 161.792 429.856 161.551C429.36 159.975 430.846 158.153 432.38 157.291C432.916 156.069 433.502 155.959 434.14 156.964C434.693 157.138 435.207 157.056 435.683 156.718C437.05 156.408 438.582 155.103 440.025 153.874C440.943 153.092 441.824 152.341 442.605 151.896C443.138 151.593 443.844 151.251 444.615 150.877H444.616C446.687 149.873 449.242 148.635 450.266 147.259C451.026 146.238 450.718 145.853 450.372 145.419C450.098 145.076 449.802 144.704 449.985 143.966C450.515 141.824 452.36 144.57 452.852 145.302C452.885 145.351 452.913 145.392 452.932 145.421C453.153 145.199 453.571 144.916 454.038 144.6C455.033 143.928 456.247 143.107 456.226 142.421L454.29 142.076C454.497 141.957 454.778 141.767 455.092 141.556C455.849 141.046 456.8 140.405 457.38 140.291C457.678 140.234 457.888 140.171 458.046 140.125C458.239 140.068 458.353 140.034 458.451 140.06C458.592 140.096 458.701 140.253 458.966 140.634C459.072 140.786 459.202 140.973 459.368 141.202C459.477 141.033 459.631 140.754 459.807 140.433V140.433C460.26 139.612 460.868 138.507 461.293 138.219C461.46 138.106 462.108 138.016 462.685 137.936C463.091 137.879 463.461 137.827 463.606 137.776C464.62 137.418 465.015 136.819 465.395 136.243C465.699 135.782 465.994 135.334 466.591 135.033C466.939 134.859 467.331 134.921 467.703 134.98C468.027 135.033 468.337 135.082 468.59 134.971C469.049 134.771 469.267 134.316 469.486 133.861C469.684 133.449 469.882 133.037 470.259 132.813C470.629 132.591 471.307 132.589 471.981 132.586C472.555 132.585 473.125 132.582 473.502 132.445C474.408 132.114 474.683 131.798 475.067 131.355C475.257 131.135 475.475 130.885 475.811 130.584C476.624 129.859 477.4 129.609 478.211 129.347C478.817 129.152 479.442 128.95 480.118 128.54C480.921 128.052 481.27 127.265 481.593 126.538C481.928 125.782 482.234 125.093 482.992 124.874C483.848 124.628 484.429 124.837 484.9 125.006C485.522 125.23 485.952 125.384 486.567 124.326C486.665 124.159 486.545 123.958 486.412 123.735C486.214 123.401 485.985 123.017 486.399 122.616C487.139 121.901 487.502 122.547 487.841 123.149C487.892 123.241 487.944 123.331 487.995 123.416L487.997 123.411L488.001 123.406C488.449 122.562 488.896 121.717 489.343 120.872C490.665 121.596 490.839 121.306 491.152 120.786C491.351 120.456 491.606 120.032 492.247 119.716C492.598 119.543 492.92 119.618 493.248 119.694C493.604 119.775 493.967 119.859 494.384 119.632C494.738 119.441 494.916 119.115 495.093 118.792C495.212 118.574 495.33 118.357 495.5 118.184C495.747 117.932 495.96 117.652 496.173 117.373C496.662 116.732 497.148 116.095 498.027 115.819C497.571 115.961 501.309 115.853 500.975 115.693C500.612 115.159 500.248 114.626 499.884 114.092C500.28 114.092 500.666 114.1 501.045 114.108H501.045C502.54 114.138 503.932 114.168 505.442 113.698L505.473 113.689C506.143 113.481 507.168 113.165 507.716 112.745L507.762 112.711C508.439 112.193 508.736 111.966 508.858 111.669C508.953 111.437 508.943 111.162 508.924 110.674C508.915 110.418 508.903 110.105 508.903 109.708C511.016 111.053 513.707 110.583 515.792 109.023C516.258 108.675 516.653 108.297 517.046 107.92C517.57 107.418 518.09 106.919 518.773 106.498C519.285 106.233 519.807 105.984 520.336 105.754C520.999 105.069 521.662 105.062 522.327 105.736C522.99 105.558 523.181 105.419 523.49 105.193C523.62 105.098 523.771 104.988 523.986 104.853C524.195 104.44 524.417 104.035 524.655 103.637C525.437 103.555 526.208 103.414 526.968 103.213C527.823 102.984 528.58 102.655 529.29 102.347C531.033 101.59 532.496 100.955 534.443 102.195L534.658 101.758L534.665 101.743C534.942 101.179 535.219 100.615 535.494 100.051C536.32 101.341 536.961 100.845 537.815 100.183C538.167 99.9102 538.554 99.6098 539.005 99.3943C539.336 99.2368 539.717 99.1397 540.089 99.045C540.446 98.9536 540.795 98.8646 541.082 98.7259C541.412 98.8034 541.743 98.8818 542.073 98.9601C542.353 98.0949 542.632 97.2298 542.911 96.3646C543.06 96.4225 543.324 96.5482 543.644 96.7009C544.543 97.1285 545.888 97.7685 546.383 97.7211C546.911 97.6713 547.496 97.1587 548.071 96.6551C548.543 96.2405 549.008 95.8316 549.43 95.6928C550.241 95.4259 550.425 95.5116 550.691 95.6373C550.891 95.7328 551.14 95.8495 551.741 95.8536C551.882 95.8544 552.012 95.8585 552.135 95.8618C552.956 95.883 553.445 95.8961 554.252 95.1109C551.646 94.4342 553.932 94.0547 555.541 93.787C555.87 93.7323 556.172 93.6825 556.396 93.6352C556.967 93.5168 557.461 93.4654 557.908 93.4197C559.074 93.2997 559.916 93.2132 560.95 92.0362H559.464C560.551 91.0478 560.561 91.0502 561.122 91.171C561.318 91.2126 561.581 91.2698 561.981 91.3032C562.089 91.3122 562.277 91.3759 562.504 91.4534C563.302 91.7252 564.584 92.1619 564.587 90.9555C566.583 92.1317 566.605 92.1341 568.663 91.6036C569.036 91.5073 569.387 91.322 569.739 91.1359C570.247 90.8674 570.76 90.5964 571.351 90.5858C571.816 90.5776 572.218 90.6739 572.607 90.7662C573.034 90.8682 573.443 90.9653 573.9 90.9155C574.368 90.8657 575.888 90.3091 576.64 90.0332C576.725 90.0014 576.801 89.9736 576.864 89.9508C577.341 89.7769 577.738 89.5076 578.129 89.2423C578.541 88.9632 578.944 88.6889 579.424 88.5379C579.972 88.3649 580.601 88.3934 581.232 88.422C581.786 88.4473 582.341 88.4726 582.847 88.3616C583.897 88.1306 584.807 87.7699 585.675 87.4246C587.468 86.712 589.091 86.0672 591.438 86.77C591.8 83.7386 595.483 84.3091 597.61 84.6389L597.789 84.6666C598.179 84.727 598.517 84.8127 598.832 84.8935C599.697 85.1131 600.391 85.2902 601.495 84.767C602.029 84.5148 602.463 84.1981 602.895 83.8831C603.457 83.4725 604.016 83.0644 604.788 82.8024C605.669 82.5037 606.807 82.2735 607.797 82.0727C607.986 82.0343 608.168 81.9976 608.343 81.9609C609.02 81.747 609.711 81.6785 610.417 81.756C611.171 81.8621 611.796 82.2041 612.29 82.7812C612.277 82.813 612.288 82.8301 612.329 82.8269C612.316 82.8114 612.303 82.7967 612.29 82.7812C612.397 82.5265 614.047 81.3038 613.857 81.4548C614.244 81.1455 614.566 80.9708 614.85 80.8166C615.469 80.4803 615.903 80.2436 616.422 78.9278C615.983 78.8356 615.543 78.7426 615.103 78.6495C614.663 78.5573 614.224 78.4642 613.784 78.3712C613.94 78.3606 614.092 78.35 614.239 78.3385C615.379 78.2528 616.301 78.1843 617.37 78.6511C617.725 78.8062 618.182 79.2437 618.654 79.6959C619.294 80.3097 619.963 80.9504 620.445 80.9512C621.957 80.9529 622.486 78.8217 622.336 77.7125C623.605 80.668 624.688 81.1602 627.539 79.6494C627.706 79.5604 627.873 79.4723 628.041 79.3833L628.062 79.3719C628.223 79.287 628.383 79.2021 628.543 79.1164C629.222 78.4055 629.896 78.4185 630.567 79.1564C630.965 79.3735 631.363 79.5898 631.762 79.8069L632.064 79.3041C632.442 78.6748 632.82 78.0455 633.199 77.4154C634.216 78.816 635.182 78.8846 636.841 78.5573C637.405 78.4463 638.261 77.8864 639.086 77.3468C639.934 76.7918 640.747 76.2596 641.175 76.2596C641.409 76.2596 641.672 76.5306 641.973 76.8391C642.303 77.1779 642.677 77.5623 643.104 77.6839C644.453 78.0708 646.55 77.0979 647.031 75.8066C647.286 76.3453 647.542 76.8849 647.796 77.4244C647.955 77.2766 648.114 77.1281 648.273 76.9804C648.752 76.5331 649.231 76.085 649.707 75.6344C649.878 77.1044 651 77.0816 651.978 77.062C652.699 77.0473 653.342 77.0342 653.467 77.6211C653.615 78.3083 651.61 79.7996 650.415 80.6876C650.097 80.9235 649.837 81.1177 649.689 81.2418C651.579 82.3812 653.902 80.3913 655.611 78.9278C655.958 78.6315 656.278 78.3565 656.566 78.1337C657.443 79.0862 657.74 79.5865 656.934 80.6762C656.194 81.6768 655.857 81.4679 655.465 81.2247C655.104 81.0002 654.696 80.7472 653.885 81.3895C654.446 82.3314 654.952 82.0947 655.585 81.7985C655.749 81.7217 655.92 81.6417 656.103 81.5764C655.876 82.9044 656.078 82.9681 656.421 83.0758C656.667 83.1534 656.984 83.2538 657.269 83.8545C657.688 84.7401 657.752 85.451 657.83 86.3097C657.855 86.5888 657.881 86.8834 657.922 87.2042ZM397.512 202.033C398.274 201.968 398.489 202.319 398.683 202.636C398.847 202.904 398.994 203.145 399.443 203.087C399.825 203.037 400.131 202.634 400.446 202.22C400.719 201.861 400.998 201.493 401.337 201.346C402.876 200.672 405.112 200.569 407.163 200.474C408.126 200.43 409.048 200.387 409.839 200.288C411.142 200.125 412.369 199.743 413.583 199.366V199.365C414.724 199.011 415.852 198.659 417.024 198.495C418.02 198.356 418.747 198.536 419.691 198.812C419.76 198.833 419.826 198.851 419.89 198.87C420.772 199.127 421.207 199.254 421.47 199.539C421.724 199.815 421.817 200.242 422 201.084L422.008 201.118C422.972 205.567 422.227 210.299 421.482 215.027C420.507 221.221 419.532 227.409 422.403 232.949C407.601 232.829 392.768 233.124 378.051 234.859C378.051 233.558 378.061 232.257 378.071 230.957C378.104 226.666 378.136 222.38 377.812 218.092C377.664 216.131 377.459 214.175 377.254 212.218V212.218C377.193 211.645 377.134 211.073 377.075 210.5C376.767 207.482 376.84 207.467 379.033 207.017C379.173 206.988 379.321 206.958 379.479 206.925C380.261 206.76 380.759 206.408 381.283 206.036C381.683 205.752 382.101 205.457 382.672 205.226C383.335 204.957 383.753 205.091 384.251 205.249C384.496 205.326 384.76 205.41 385.082 205.455C386.34 205.633 386.702 205.53 387.406 205.332C387.679 205.255 388.002 205.163 388.449 205.068C389.283 204.89 390.087 204.771 390.865 204.655C393.288 204.296 395.459 203.974 397.512 202.033ZM657.712 110.607C657.499 110.483 657.285 110.359 657.072 110.234C654.542 115.592 652.885 121.177 651.205 126.835C650.961 127.659 650.715 128.485 650.467 129.313C649.455 132.688 648.448 136.063 647.442 139.441C647.257 140.062 647.032 140.706 646.803 141.364C646.041 143.549 645.226 145.886 645.641 148.023C648.836 143.098 651.877 138.073 654.766 132.963C656.174 130.471 657.548 127.959 658.89 125.432C659.064 125.104 659.28 124.756 659.503 124.397C659.988 123.616 660.505 122.784 660.693 121.99C660.933 120.973 661.177 120.671 661.109 120.488C661.044 120.317 660.71 120.249 659.851 119.803C660.536 119.026 660.982 119.241 661.353 119.419C661.566 119.521 661.753 119.611 661.948 119.498C662.424 119.222 663.073 118.363 663.587 117.683C663.799 117.403 663.988 117.153 664.133 116.987C663.734 116.874 663.076 116.75 662.311 116.607C660.343 116.237 657.672 115.737 656.939 114.933C655.767 113.647 657.02 112.526 658.249 111.427C658.365 111.324 658.479 111.222 658.591 111.119C658.298 110.949 658.005 110.778 657.712 110.607Z" fill="#FF5678"/>
<path fill-rule="evenodd" clip-rule="evenodd" d="M323.711 327.885C323.365 329.666 322.5 330.506 323.407 332.142C324.176 333.532 326.384 334.442 327.865 334.09L323.711 327.885ZM283.575 264.509L276.267 267.014C278.265 268.974 280.168 271.034 282.37 272.774L283.575 264.509ZM404.112 270.925C400.627 269.168 396.723 268.97 392.902 268.744C393.483 271.881 394.065 275.019 394.647 278.155C397.801 275.745 400.958 273.335 404.112 270.925ZM320.424 513.743C319.728 512.512 314.984 502.996 313.998 503.484C313.475 503.743 313.434 509.041 313.358 509.795C313.086 512.475 312.813 515.155 312.541 517.835C315.348 516.844 318.345 516.022 320.424 513.743ZM287.279 436.812C287.996 438.915 288.715 441.018 289.432 443.122C289.773 444.121 289.973 445.596 290.577 446.479C291.361 447.623 290.77 448.296 291.817 447.043C292.942 445.697 293.278 442.108 293.766 440.459C294.508 437.954 295.249 435.451 295.99 432.947C292.496 432.917 290.378 435.794 287.279 436.812ZM213.851 312.96C209.554 315.897 205.205 318.81 201.466 322.46C204.755 322.255 209.334 324.518 212.431 323.455C213.861 323.76 214.334 323.218 213.851 321.825V318.932V312.96ZM277.558 333.734V350.881C281.569 347.462 285.792 344.287 289.652 340.693C285.62 338.373 281.59 336.054 277.558 333.734ZM420.967 378.162C419.701 385.795 419.631 393.65 419.284 401.375C419.223 402.746 418.695 404.81 419.608 406.011C420.525 407.215 423.136 407.882 424.463 408.525C428.197 410.335 431.906 412.197 435.629 414.029C430.742 402.073 425.854 390.118 420.967 378.162ZM515.771 331.219C524.983 326.691 534.195 322.162 543.408 317.633C534.376 313.809 525.343 309.986 516.311 306.162C516.131 314.514 515.95 322.867 515.771 331.219ZM420.947 352.539C422.631 352.66 422.897 346.247 423.176 344.551C423.706 341.332 424.25 338.115 424.807 334.9C425.923 328.473 427.095 322.056 428.329 315.651C430.797 302.843 433.519 290.083 436.536 277.394C433.294 276.809 430.316 276.389 427.15 275.446C424.593 274.683 421.547 275.098 419.264 273.513C418.968 279.459 420.453 285.78 421.002 291.727C421.639 298.606 421.981 305.45 421.924 312.361C421.813 325.754 421.305 339.151 420.947 352.539ZM208.91 533.999C210.507 533.573 208.333 511.688 208.236 508.532C207.959 499.394 207.905 490.25 208.068 481.11C199.467 486.504 190.665 491.471 181.579 495.952C183.915 498.981 186.103 502.247 188.687 505.066C191.349 507.97 194.404 510.349 196.871 513.476C201.839 519.773 205.241 526.921 208.91 533.999ZM415.891 404.533C416.291 397.95 416.661 391.381 417.326 384.818C417.609 382.025 420.308 367.184 415.986 367.532C413.528 367.731 409.216 371.328 406.962 372.589C403.984 374.254 401.002 375.915 398.01 377.554C392.106 380.79 386.162 383.954 380.236 387.151C392.121 392.945 404.006 398.739 415.891 404.533ZM390.231 267.655C385.308 267.287 380.55 266.922 375.694 266.005C373.076 265.511 370.457 265.579 367.825 265.245C365.94 265.006 362.254 263.458 360.498 263.965C358.291 264.601 357.489 275.662 357.186 278.438C356.697 282.909 356.367 288.334 358.364 292.534C362.214 300.631 372.585 294.311 377.631 290.914C381.956 288.002 386.856 285.053 390.692 281.518C394.09 278.386 391.04 271.702 390.231 267.655ZM415.76 355.704C419.468 354.203 419.41 352.32 419.571 348.439C419.767 343.725 419.881 339.005 420.016 334.288C420.256 325.883 420.483 317.473 420.408 309.063C420.335 300.848 419.933 292.646 418.993 284.481C418.66 281.594 418.991 276.663 417.469 274.201C416.081 271.955 411.772 271.931 409.42 272.07C406.769 272.226 404.622 274.744 402.665 276.335C400.498 278.099 396.046 280.582 395.691 283.212C395.292 286.149 396.906 290.339 397.531 293.188C399.817 303.584 402.599 313.878 405.529 324.108C408.569 334.722 411.649 345.443 415.76 355.704ZM321.529 330.819C321.769 328.483 322.638 326.532 321.463 324.307C320.453 322.394 318.809 320.472 317.574 318.661C314.04 313.473 310.076 308.504 306.226 303.548C302.7 299.009 299.088 294.518 295.392 290.116C293.333 287.665 291.211 285.267 289.102 282.859C287.557 281.097 286.093 278.621 283.908 277.698C282.297 287.817 280.967 297.98 279.929 308.173C279.428 313.101 278.995 318.035 278.632 322.975C278.529 324.369 277.448 329.078 278.139 330.377C278.866 331.74 283.31 333.566 284.671 334.401C288.475 336.739 291.43 340.261 295.048 336.418C297.538 333.772 299.543 330.042 302.326 327.733C303.777 326.53 305.142 326.586 306.769 325.872C308.66 325.043 308.72 324.244 310.98 325.372C314.788 327.273 317.101 330.083 321.529 330.819ZM130.904 382.881C130.904 389.887 130.425 395.646 135.174 401.317C139.323 406.273 143.635 407.42 149.472 409.375C152.909 410.526 153.149 409.465 155.934 407.521C158.581 405.675 161.463 404.193 164.073 402.288C169.699 398.183 175.321 393.948 180.789 389.629C182.627 388.177 182.356 388.673 182.077 386.93C181.822 385.343 180.682 383.322 180.06 381.812C178.933 379.08 177.606 376.436 176.278 373.797C174.771 370.804 173.457 367.552 171.585 364.76C170.808 363.602 169.886 362.554 168.979 361.498C167.07 359.274 167.137 359.356 164.854 361.174C160.035 365.013 155.55 369.168 150.126 372.169C143.708 375.721 137.306 379.297 130.904 382.881ZM276.23 328.615C276.926 318.558 277.711 308.556 278.917 298.544C279.536 293.404 280.257 288.277 280.958 283.147C281.244 281.059 282.346 277.553 281.732 275.524C281.129 273.527 278.466 271.626 277.005 270.181C276.613 269.792 275.405 268.162 274.886 268.089C274.33 268.011 272.238 269.544 271.635 269.889C269.502 271.112 267.407 272.399 265.343 273.737C261.455 276.26 257.687 278.967 254 281.776C246.269 287.665 238.896 294.002 231.329 300.098C238.262 306.173 246.796 310.892 254.547 315.813C259.13 318.723 263.737 321.601 268.403 324.375C270.769 325.78 273.513 327.93 276.23 328.615ZM181.456 508.461C175.858 512.162 170.512 516.07 164.18 518.445C157.877 520.81 151.648 521.72 145.134 523.126C141.849 523.835 138.761 524.61 135.408 525.107C133.529 525.384 130.621 525.277 128.908 526.071C127.382 525.746 126.839 526.266 127.278 527.631C127.295 528.056 127.311 528.48 127.327 528.905C127.759 534.808 131.554 541.913 134.863 546.712C136.795 549.515 139.257 552.123 141.703 554.478C144.465 557.138 146.058 559.014 149.908 557.9C156.398 556.021 162.125 552.239 168.703 550.572C173.906 549.253 178.228 546.488 183.302 545.057C189.56 543.293 195.753 541.282 202.097 539.808C199.263 534.337 196.729 528.642 193.101 523.631C189.38 518.489 185.277 513.548 181.456 508.461ZM215.792 324.39C227.499 326.721 240.189 328.878 250.668 334.922C254.757 337.281 259.941 340.927 261.138 345.805C262.57 351.636 256.941 355.248 252.24 357.068C246.595 359.253 240.45 360.091 234.469 360.78C231.303 361.144 228.122 361.344 224.941 361.524C222.367 361.671 218.001 361.105 215.648 362.126C214.174 361.832 213.663 362.429 214.115 363.919C214.087 364.453 214.061 364.989 214.034 365.523L213.79 370.331C213.627 373.532 213.465 376.734 213.301 379.935C212.948 386.909 212.594 393.884 212.24 400.857C218.373 397.058 223.315 391.618 229.308 387.564C232.158 385.637 234.987 383.706 237.825 381.786C239.015 380.981 239.742 379.852 240.913 379.102C242.466 378.107 243.843 377.509 245.3 376.205C251.25 370.884 257.867 366.283 264.178 361.398C267.045 359.178 270.183 357.138 272.911 354.757C275.768 352.262 275.373 350.209 275.303 346.623C275.229 342.827 276.622 338.113 275.976 334.453C276.519 333.21 276.102 332.438 274.726 332.134C273.807 331.546 272.889 330.959 271.97 330.371C270.138 329.199 268.305 328.027 266.473 326.855C259.183 322.194 251.894 317.532 244.605 312.87C240.964 310.542 237.323 308.213 233.681 305.884C232.664 305.235 229.347 302.296 228.205 302.383C227.042 302.471 225.022 304.743 224.15 305.467C222.811 306.575 221.512 307.741 220.065 308.712C219.345 309.211 218.592 309.657 217.809 310.05C216.556 310.17 216.121 310.859 216.502 312.113C215.402 315.642 216.006 320.683 215.792 324.39ZM378.146 490.772C375.495 478.378 372.076 463.701 361.735 455.271C351.248 446.72 335.915 450.024 327.711 460.065C323.603 465.095 321.055 471.041 319.163 477.202C317.221 483.526 314.358 491.766 314.882 498.454C315.112 501.386 317.624 504.537 319.06 507.095C320.541 509.737 321.525 513.526 325.016 512.611C330.43 511.191 335.936 507.933 341.003 505.601C346.127 503.241 351.522 501.3 356.836 499.021C360.363 497.509 364.026 496.358 367.544 494.824C370.881 493.37 375.284 493.019 378.146 490.772ZM534.802 416.951C542.197 419.598 546.041 415.361 551.244 410.591C556.173 406.073 561.514 401.727 566.053 396.816C570.735 391.752 574.435 385.768 578.035 379.919C581.673 374.008 586.592 367.624 588.832 361.04C589.972 357.691 590.458 353.981 591.177 350.519C591.35 349.686 592.509 346.585 592.141 345.884C591.634 344.92 588.405 344.818 587.518 344.677C580.462 343.562 572.985 343.506 565.907 344.504C552.214 346.433 540.762 354.113 536.433 367.541C531.36 383.283 533.798 400.779 534.802 416.951ZM486.856 280.414C486.741 283.139 493.274 283.897 494.968 284.532C498.881 286 502.772 287.55 506.571 289.287C514.396 292.863 522.74 295.194 530.233 299.518C546.385 308.84 563.92 315.411 580.238 324.328C582.78 325.718 587.748 329.065 590.653 328.782C592.196 328.632 591.046 329.874 592.047 327.42C592.407 326.537 592.527 325.389 592.729 324.443C593.334 321.608 593.801 318.747 594.481 315.928C595.598 311.288 596.739 306.983 597.21 302.214C597.41 300.193 597.629 298.175 597.652 296.142C597.677 294.082 598.151 288.92 597.221 287.137C596.604 285.954 596.481 286.36 594.94 286.026C594.057 285.835 593.131 285.438 592.279 285.172C590.28 284.55 588.28 283.953 586.184 283.77C584.113 283.589 582.792 282.959 580.85 282.593C578.813 282.209 576.72 282.675 574.644 282.139C572.404 281.561 571.334 281.033 568.993 281.254C566.724 281.468 566.071 280.965 563.848 280.346C561.993 279.83 559.783 280.191 557.849 280.034C555.509 279.843 553.176 279.551 550.834 279.366C540.305 278.532 529.651 279.768 519.098 279.67C513.359 279.617 507.743 280.464 502.013 280.202C497.004 279.974 491.827 280.028 486.856 280.414ZM514.247 335.907C509.125 337.858 504.376 341.027 499.627 343.755C494.151 346.902 488.91 350.245 483.842 354.018C475.322 360.363 465.379 367.971 463.136 379.043C460.835 390.407 470.703 399.717 479.955 404.366C490.506 409.667 502.781 412.409 514.338 414.434C513.103 388.275 513.393 362.073 514.247 335.907ZM361.018 397.492C357.911 398.351 355.28 400.19 352.397 401.55C349.815 402.769 347.317 403.688 344.905 405.257C340.975 407.814 336.419 410.003 332.31 411.981C322.143 416.872 312.273 422.947 302.207 428.369C299.54 429.806 298.666 430.714 297.762 433.671C296.781 436.884 295.856 440.119 294.911 443.343C294.03 446.35 292.623 449.565 292.993 452.739C293.316 455.5 294.745 458.105 295.821 460.624C298.533 466.962 301.472 473.2 304.509 479.387C307.234 484.943 309.721 490.836 313.22 495.943C315.938 481.762 318.378 465.873 328.918 455.067C339.449 444.269 356.251 444.116 366.4 455.263C371.221 460.557 374.156 467.226 376.462 473.926C377.673 477.446 378.487 481.034 379.267 484.669C380.099 488.553 379.894 490.614 384.179 489.437C387.582 488.502 391.19 487.756 394.526 486.69C396.256 486.137 397.944 485.516 398.022 484.149C398.122 482.423 395.797 478.888 395.111 477.264C391.566 468.88 388.021 460.496 384.475 452.113C380.625 443.01 376.774 433.907 372.922 424.804C371.001 420.262 369.079 415.721 367.157 411.179C365.403 407.039 363.943 400.892 361.018 397.492ZM514.535 326.7C514.592 322.561 514.661 318.422 514.715 314.282C514.747 311.815 515.847 307.045 513.698 305.283C512.366 304.191 508.415 303.353 506.73 302.606C503.406 301.132 499.807 300.474 496.462 299.01C483.366 293.272 469.736 288.494 456.251 283.87C453.344 282.873 450.372 282.057 447.445 281.075C445.865 280.545 440.012 277.432 438.55 278.247C437.269 278.959 436.304 287.448 435.894 289.21C434.923 293.383 433.995 297.566 433.104 301.756C429.642 318.025 426.739 334.408 424.039 350.819C431.212 348.095 438.087 343.376 444.864 339.727C451.904 335.937 458.919 332.157 466.007 328.454C468.008 327.409 475.046 322.605 476.693 324.49C479.335 327.516 473.04 331.065 471.387 332.361C464.994 337.375 458.241 341.746 451.404 346.119C444.32 350.652 436.948 354.656 429.828 359.106C427.257 360.713 423.154 362.668 422.144 365.381C420.845 368.872 421.782 373.113 422.966 376.448C425.872 384.642 429.054 392.734 432.419 400.75C433.95 404.394 435.519 408.022 437.118 411.636C439.022 415.941 441.521 416.851 445.67 418.832C463.344 427.272 481.702 435.281 498.678 445.047C495.837 448.322 488.913 442.944 486.109 441.583C480.916 439.061 475.718 436.547 470.53 434.017C460.863 429.305 451.246 424.5 441.525 419.901C447.755 434.071 455.107 447.724 463.26 460.877C461.201 461.574 461.703 461.611 460.411 460.373C459.323 459.331 458.593 457.289 457.856 455.979C456.332 453.275 454.828 450.56 453.293 447.863C450.108 442.264 446.807 436.751 443.899 431C441.712 426.676 440.017 419.116 435.522 416.936C429.92 414.218 424.244 411.573 418.642 408.816C418.642 430.36 420.191 451.426 422.463 472.837C422.578 473.916 423.613 477.103 421.526 476.791C420.585 476.65 420.267 470.742 420.103 469.509C419.344 463.853 418.7 458.184 418.173 452.503C417.124 441.167 416.554 429.785 416.48 418.4C415.136 429.469 413.792 440.537 412.447 451.606L410.537 467.34C410.202 470.095 409.867 472.85 409.533 475.604C409.379 476.87 409.476 478.525 409.031 479.732C408.332 481.631 408.567 481.486 406.374 482.352C408.471 467.938 410.408 453.501 412.121 439.036C412.957 431.979 413.741 424.915 414.463 417.845C414.658 415.944 414.848 414.042 415.034 412.14C415.128 411.17 415.964 408.052 415.5 407.247C415.04 406.448 411.994 405.616 411.116 405.209C409.196 404.317 407.275 403.427 405.356 402.531C399.127 399.619 392.902 396.684 386.742 393.631C384.046 392.294 381.22 390.23 378.289 389.518C375.371 388.808 373.249 390.839 370.754 392.13C368.812 393.135 364.237 394.473 362.94 396.18C361.733 397.768 365.482 404.125 366.467 406.468C369.244 413.079 372.023 419.691 374.801 426.303C380.434 439.708 386.067 453.114 391.701 466.52C393.078 469.796 394.455 473.073 395.832 476.35C396.714 478.45 398.187 484.435 400.328 484.669C401.276 484.773 402.832 483.742 403.747 483.446C405.114 483.004 406.376 483.011 407.747 482.778C410.259 482.352 412.868 481.056 415.335 480.147C421.676 477.809 428.25 476.3 434.643 474.116C441.065 471.923 447.382 469.459 453.779 467.265C459.588 465.273 465.45 463.004 471.032 460.41C476.926 457.67 482.97 455.254 488.713 452.216C499.174 446.683 509.521 441.515 518.764 434.729C520.937 433.134 523.251 431.531 525.401 429.823C527.286 428.324 530.882 426.472 532.165 424.501C532.654 423.75 533.074 422.276 532.503 421.383C531.89 420.425 529.175 420.512 527.907 420.342C523.907 419.805 519.907 419.267 515.908 418.73C516.215 421.361 516.525 423.989 516.748 426.629C516.904 428.493 518.006 433.418 516.52 434.878C514.478 432.937 515.134 427.133 514.951 424.547C514.853 423.165 515.205 420.46 514.586 419.234C513.908 417.891 512.034 417.909 510.336 417.541C503.133 415.983 495.996 414.676 489.027 412.207C477.253 408.037 463.179 400.995 460.549 387.413C457.808 373.255 469.855 360.987 479.998 353.09C486.071 348.363 492.532 344.269 499.215 340.469C502.338 338.694 505.46 336.918 508.603 335.18C509.746 334.548 513.5 333.246 514.103 332.141C514.72 331.011 514.404 327.988 514.535 326.7ZM262.637 544.142C262.065 544.422 261.493 544.701 260.923 544.98C267.277 526.872 273.572 508.846 278.885 490.398C281.449 481.494 284.047 472.599 286.699 463.72C287.844 459.891 290.656 454.616 289.875 450.649C289.03 446.355 287.002 441.787 285.433 437.704C275.391 444.016 265.139 450.005 254.93 456.031C245.778 461.435 236.47 466.241 227.254 471.588C222.531 474.327 217.659 476.177 212.73 478.415C208.725 480.235 210.28 485.796 210.338 489.51C210.54 502.625 210.53 515.786 211.326 528.883C211.616 533.653 211.242 539.131 214.279 543.102C218.164 548.179 221.766 553.354 225.309 558.699C226.636 560.701 232.211 571.541 234.29 571.303C235.648 571.149 236.897 566.76 237.576 565.719C239.04 563.475 241.179 561.545 243.127 559.739C251.537 551.936 260.869 546.439 270.569 540.736C280.423 534.943 290.507 529.55 300.547 524.056C302.815 522.815 305.258 521.919 307.512 520.651C308.402 520.15 310.168 519.354 310.729 518.459C311.567 517.118 311.283 513.406 311.457 511.803C311.815 508.53 312.457 505.13 312.492 501.832C312.525 498.576 310.567 495.777 309.148 492.937C302.917 480.467 296.863 467.967 291.441 455.119C287.167 470.038 282.679 484.886 278.487 499.827C276.297 507.628 273.659 515.302 271.089 522.984C269.778 526.907 268.458 530.828 267.148 534.752C266.127 537.808 265.598 542.282 262.637 544.142ZM352.127 262.984C348.824 263.021 345.83 262.536 342.599 261.846C341.414 261.594 340.373 261.487 339.171 261.381C337.809 261.261 336.571 260.523 335.377 260.378C334.475 260.27 332.899 260.648 332.037 260.937C330.039 261.607 330.102 261.269 330.019 263.588C329.888 267.172 329.79 270.757 329.594 274.338C328.819 288.433 327.322 302.391 325.271 316.35C324.856 319.172 323.693 322.872 324.332 325.674C324.909 328.201 327.091 330.899 328.533 333.018C331.498 337.376 338.481 339.529 343.394 340.764C348.575 342.068 353.954 342.548 358.875 343.71C360.239 344.033 361.805 343.465 363.258 343.788C364.603 344.086 365.647 344.824 366.889 345.358C369.933 346.665 373.333 346.906 376.476 347.915C382.709 349.915 389.382 349.795 395.62 351.716C397.215 352.207 398.593 353.444 400.127 353.868C401.531 354.255 402.975 353.799 404.444 354.016C407.555 354.474 410.456 355.537 411.173 358.877C413.076 357.371 413.34 357.767 413.011 355.438C412.801 353.944 411.969 352.125 411.514 350.686C410.353 347.014 409.186 343.345 408.026 339.674C405.732 332.409 403.451 325.138 401.336 317.819C399.443 311.272 397.723 304.676 396.219 298.028C395.455 294.649 394.816 291.254 394.16 287.856C393.969 286.87 394.158 285.303 393.168 284.647C392.269 284.052 390.171 286.187 389.222 286.875C382.592 291.678 367.385 305.882 359.096 297.503C354.632 292.991 354.893 285.058 355.378 279.229C355.675 275.645 356.304 272.109 357.008 268.586C357.183 267.707 358.258 264.883 357.865 264.257C357.44 263.584 353.014 263.182 352.127 262.984ZM585.089 341.386C586.855 341.583 588.618 341.782 590.383 341.98C590.222 340.554 590.367 338.41 589.827 337.082C589.08 335.246 587.253 335.041 585.243 334.281C582.063 333.078 578.82 332.033 575.675 330.738C568.85 327.93 562.057 325.081 555.227 322.272C552.234 321.041 548.717 319.026 545.467 320.031C541.962 321.117 538.503 323.327 535.227 324.946C531.517 326.779 527.809 328.616 524.102 330.453C522.363 331.315 520.624 332.176 518.885 333.038C516.154 334.392 515.79 334.529 515.575 337.62C514.477 353.431 514.559 369.857 515.037 385.69C515.282 393.769 515.008 401.893 515.587 409.959C515.632 410.579 515.585 414.08 515.974 414.557C516.521 415.23 520.371 415.457 521.291 415.626C524.877 416.281 528.489 416.499 532.113 416.823C531.259 398.432 528.123 376.691 537.568 359.869C547.055 342.968 567.333 339.308 585.089 341.386ZM420.169 160.456C421.232 158.033 423.064 155.988 424.629 153.863C425.476 152.713 426.94 151.34 427.482 149.995C428.253 148.082 428.249 148.492 427.097 146.816C426.007 145.233 426.029 145.114 424.344 144.83C422.926 144.592 421.415 144.997 419.966 144.737C418.501 144.475 414.475 143.24 415.398 140.909C415.358 141.011 417.687 139.863 417.869 139.664C418.454 139.026 418.639 137.667 418.928 136.897C419.859 134.427 420.185 132.828 419.148 130.198C417.599 126.271 411.476 125.109 407.664 126.431C405.758 127.09 404.672 128.489 403.816 130.247C403.271 131.364 403.145 132.977 402.441 133.949C401.38 135.413 401.315 135.251 399.115 134.992C396.315 134.663 394.018 133.587 391.365 132.837C388.474 132.019 386.595 133.683 384.069 135.024C379.51 137.446 375.106 138.287 369.999 138.671C364.312 139.1 359.041 137.729 353.41 137.375C354.871 144.105 358.649 149.569 361.669 155.662C362.2 156.734 363.058 157.829 363.078 159.069C363.099 160.237 361.408 161.826 361.598 162.793C362.005 164.855 366.543 166.505 368.262 167.085C373.124 168.725 378.66 171.935 384.011 170.646C386.946 169.939 388.524 165.306 391.285 164.966C394.989 164.507 392.218 169.277 391.53 170.917C396.787 171.716 403.451 171.039 408.483 169.256C411.005 168.363 413.142 167.031 415.444 165.709C418.31 164.064 418.906 163.611 420.169 160.456ZM328.169 260.613C318.797 260.769 309.287 259.42 299.893 260.66C297.717 260.946 295.57 261.408 293.431 261.9C291.894 262.253 287.013 262.552 285.988 263.695C285.054 264.737 285.047 269.535 284.855 270.888C284.426 273.9 284.54 274.939 286.461 277.268C292.78 284.931 299.361 292.365 305.588 300.112C311.569 307.554 316.479 315.87 322.524 323.207C325.753 313.808 325.947 302.529 326.833 292.674C327.306 287.419 327.736 282.161 328.14 276.901C328.524 271.891 329.832 265.39 328.169 260.613ZM206.857 359.666C207.941 359.666 209.669 360.006 210.723 359.666C212.172 360.128 212.656 359.584 212.177 358.036C212.2 357.495 212.222 356.953 212.246 356.411C212.397 352.92 212.564 349.43 212.725 345.939C212.874 342.748 213.018 339.556 213.144 336.363C213.23 334.184 214.332 328.782 213.451 326.814C212.859 325.491 211.458 325.791 209.753 325.598C208.131 325.414 206.504 325.244 204.891 324.993C202.844 324.674 200.575 323.941 198.492 324.399C196.399 324.861 194.878 326.793 193.236 328.022C190.637 329.965 187.982 331.837 185.361 333.75C180.597 337.229 175.882 340.771 171.159 344.303C169.208 345.761 168.833 345.254 169.784 347.351C170.373 348.645 171.711 350.11 172.525 351.28C174.147 353.609 175.762 357.14 177.843 359.031C180.87 361.781 189.27 360.034 193.291 360.015C197.877 359.992 202.297 360.063 206.857 359.666ZM218.726 359.439C222.703 359.049 226.72 359.217 230.672 358.683C234.969 358.101 239.234 357.24 243.523 356.594C247.798 355.952 260.804 353.352 259.52 346.971C258.164 340.226 248.207 336.186 242.697 333.918C234.093 330.377 225.11 328.481 216.059 326.478C214.923 332.525 215.087 339.016 214.879 345.143C214.767 348.471 214.668 351.803 214.669 355.134C214.669 355.935 214.394 357.599 214.722 358.344C215.491 360.098 216.385 359.439 218.726 359.439ZM205.649 362.336H180.268C184.024 370.111 187.574 378.032 191.624 385.66C195.657 393.259 200.849 400.419 205.425 407.713C206.584 406.452 208.433 405.084 209.22 403.583C210.093 401.922 210.068 399.48 210.211 397.557C210.582 392.569 210.751 387.536 210.876 382.536C210.987 378.157 211.179 373.807 211.516 369.439C211.589 368.481 212.646 363.504 212.041 362.686C211.502 361.958 206.759 362.344 205.649 362.336ZM310.177 209.674C314.459 209.673 318.745 209.619 323.026 209.691C326.912 209.757 331.974 209.08 335.532 211.081C342.783 215.155 328.289 225.62 325.35 228.254C330.102 229.976 337.519 226.558 342.171 224.991C347.924 223.055 353.79 221.755 359.658 220.239C361.124 219.86 367.417 219.118 368.212 217.995C369 216.881 367.234 210.159 367.057 208.741C366.891 207.409 367.031 205.33 366.476 204.077C366.816 202.571 366.287 202.043 364.889 202.495C364.406 202.493 363.924 202.491 363.441 202.489C359.871 202.518 356.298 202.684 352.73 202.802C340.467 203.21 328.502 203.754 316.344 205.668C310.692 206.558 304.99 207.653 299.367 208.745C294.634 209.664 295.43 210.435 299.851 210.447C303.308 210.455 306.736 209.942 310.177 209.674ZM661.947 119.498C662.675 118.662 663.405 117.824 664.133 116.987C662.358 116.48 660.582 115.972 658.807 115.466C656.919 114.927 655.903 115.05 656.743 112.941C657.794 110.299 662.597 109.996 664.905 109.897C672.852 109.553 681.201 112.082 688.751 114.309C692.434 115.396 695.322 117.078 698.439 119.316C699.8 120.293 701.371 121.21 702.562 122.384C703.799 123.603 704.314 125.165 705.524 126.388C707.508 128.393 710.047 129.391 711.02 132.284C712.137 135.606 710.804 139.408 709.151 142.303C707.474 145.243 704.984 147.465 702.962 150.136C701.356 152.255 698.004 158.044 703.242 157.373C706.013 157.018 709.606 152.294 711.6 150.412C714.457 147.712 717.268 144.951 720.295 142.437C722.978 140.208 726.07 137.923 729.659 137.531C733.441 137.118 735.331 139.539 737.175 142.483C738.913 145.26 739.192 147.97 740.415 150.812C741.005 152.183 741.756 152.947 742.103 154.441C742.636 156.738 742.692 159.245 742.963 161.587C743.391 165.266 743.793 168.159 743.081 171.763C742.413 175.136 742.231 178.72 741.669 182.152C741.032 186.039 740.502 189.943 739.875 193.832C739.343 197.126 737.322 201.818 739.305 204.881C744.07 212.242 749.787 201.405 751.292 197.357C753.938 190.243 755.285 182.466 757.62 175.206C758.871 171.323 759.962 167.404 760.678 163.384C761.272 160.059 760.98 156.009 762.801 153.048C764.217 150.748 766.736 149.001 769.501 149.703C772.96 150.582 774.289 155.582 775.307 158.622C777.993 166.639 777.004 173.859 775.911 182.035C775.405 185.821 774.921 189.612 774.052 193.335C773.465 195.846 771.035 200.929 774.648 202.295C779.77 204.233 785.198 189.539 786.658 186.221C790.479 177.531 791.943 168.913 793.518 159.601C793.879 157.46 794.156 155.274 794.697 153.17C795.168 151.338 796.575 149.487 796.702 147.655C796.828 145.822 795.615 144.543 796.859 142.743C797.894 141.246 799.764 141.155 801.453 141.142C805.422 141.111 809.218 142.854 812.909 144.118C816.342 145.294 821.427 147.875 825.133 147.044C813.509 135.244 801.917 123.578 788.055 114.388C781.618 110.12 775.177 106.019 768.219 102.538C761.172 99.0132 753.097 96.6323 745.549 94.4995C741.444 93.3389 737.362 92.024 733.309 90.6927C729.701 89.5076 726.069 89.2831 722.535 87.9388C714.859 85.0192 706.281 83.888 698.333 81.8181C694.823 80.9047 691.275 80.1212 687.757 79.2747C684.06 78.3851 678.865 76.84 675.099 76.9902C671.881 77.1183 670.795 80.8051 669.248 83.3697C667.001 87.0924 665.085 90.9605 663.318 94.9313C659.699 103.067 655.878 111.473 653.289 119.973C651.868 124.64 650.464 129.312 649.068 133.986C647.86 138.033 644.838 143.871 645.641 148.023C651.593 138.85 657.136 129.323 661.947 119.498ZM384.816 202.331C381.658 202.475 378.499 202.617 375.342 202.761C378.49 213.111 378.051 224.131 378.051 234.859C392.767 233.124 407.601 232.829 422.404 232.949C419.684 227.702 420.738 220.896 421.513 215.278C421.967 211.989 422.22 208.821 422.154 205.504C422.092 202.391 422.989 199.775 419.691 198.812C417.075 198.049 415.422 199.321 412.93 199.901C409.945 200.596 406.694 200.68 403.655 201.058C397.33 201.844 391.232 202.305 384.816 202.331ZM300.021 222.486C309.504 219.856 319.582 220.825 329.113 218.826C326.945 216.847 322.861 218.019 319.982 218.184C316.709 218.37 313.438 218.507 310.165 218.666C306.973 218.822 298.119 218.58 296.967 222.642C297.984 222.59 299.003 222.538 300.021 222.486ZM647.025 75.8295C634.615 76.9183 621.619 76.7494 609.299 78.9148C595.189 81.3944 580.481 82.9501 566.8 87.3201C553.381 91.6077 539.695 94.6089 526.466 99.6433C513.605 104.537 501.219 109.744 489.108 116.29C483.18 119.494 477.412 122.89 471.761 126.569C466.245 130.161 460.2 133.106 454.854 136.914C450.096 140.304 445.991 143.413 441.842 147.566C437.406 152.006 433.091 156.566 428.652 160.999C424.946 164.697 427.292 173.739 427.527 178.661C427.853 185.484 428.415 192.212 429.251 198.99C430.047 205.45 430.867 212.392 429.815 218.838C429.373 221.548 427.848 226.229 428.577 228.934C429.158 231.1 433.022 232.688 434.994 233.394C437.405 234.258 439.867 233.894 442.341 234.992C445.104 236.221 447.433 237.752 450.368 238.398C453.984 239.193 458.051 239.863 461.768 239.887C465.205 239.909 468.653 241.023 472.081 241.708C477.655 242.825 483.097 243.173 482.75 249.896C482.349 257.653 479.271 264.309 477.438 271.673C479.917 271.673 481.645 271.831 483.914 270.952C486.563 269.927 489.39 269.654 492.174 269.212C498.325 268.233 504.322 267.92 510.514 267.296C521.856 266.151 533.394 266.288 544.745 266.409C550.492 266.47 556.727 266.914 562.394 267.808C568.209 268.726 574.231 269.3 579.866 271.061C584.62 272.546 589.529 273.558 594.378 274.871C596.564 275.462 599.181 275.942 601.246 276.603C604.238 277.562 605.837 279.607 609.292 279.56C608.32 273.161 606.036 267.225 604.659 260.879C603.221 254.251 600.351 248.387 597.184 242.135C595.771 239.346 594.725 236.387 593.363 233.574C591.848 230.445 589.719 227.854 587.89 224.929C584.147 218.945 580.153 213.189 576.477 207.163C573.267 201.902 569.601 196.858 566.087 191.78C562.225 186.196 556.857 181.982 552.473 176.859C550.623 174.696 548.862 172.685 546.788 170.699C544.879 168.871 542.171 164.824 539.248 164.635C537.569 164.526 534.658 165.471 533.055 165.978C530.089 166.917 526.942 167.529 523.879 168.356C520.527 169.261 517.233 170.439 513.875 171.299C512.531 171.643 510.936 171.48 509.661 171.869C508.329 172.277 507.266 173.176 505.809 173.588C498.621 175.627 491.477 177.942 484.236 179.798C476.782 181.709 469.213 183.337 461.989 186.044C460.611 186.561 459.078 187.782 458.02 186.98C457.23 186.38 456.721 184.688 456.929 183.701C457.622 180.413 462.881 179.226 465.413 177.906C472.198 174.368 478.939 171.874 486.231 169.472C489.823 168.29 493.403 167.028 497.044 166.007C500.089 165.154 503.257 163.711 506.37 163.274C509.139 162.886 511.105 161.795 513.854 160.83C517.902 159.407 522.065 158.239 526.18 157.024C533.212 154.946 540.665 154.072 547.86 152.679C564.529 149.451 581.835 147.835 598.844 148.035C607.419 148.136 616.389 147.885 624.864 149.296C626.908 149.635 631.204 149.57 632.612 151.404C633.369 152.389 632.959 153.854 633.153 154.92C633.482 156.721 634.463 157.56 635.315 159.201C637.124 150.324 639.203 141.635 641.539 132.888C643.652 124.971 645.606 116.911 648.429 109.106C651.415 100.847 655.036 92.0909 659.5 84.5328C660.419 82.9771 662.71 80.5056 662.907 78.7654C663.111 76.9698 660.595 75.5789 658.866 75.379C654.987 74.9309 650.834 75.6981 647.025 75.8295ZM730.39 202.673C731.653 190.359 735.344 177.478 733.282 165.115C732.41 159.881 731.728 154.885 729.111 150.161C727.787 147.772 727.256 146.017 724.729 147.426C722.171 148.852 719.816 152.374 717.696 154.415C713.798 158.167 709.717 162.031 705.049 164.818C701.373 167.012 694.071 169.091 691.308 164.345C688.675 159.822 692.187 153.509 694.708 149.777C697.593 145.508 703.059 141.553 699.991 136.286C698.672 134.018 696.772 133.424 694.776 131.936C693.048 130.648 691.6 128.98 689.871 127.669C684.863 123.869 679.37 122.242 673.587 120.071C670.917 119.068 670.566 118.124 669.024 120.417C667.349 122.907 666.431 126.397 665.22 129.151C662.794 134.668 660.207 139.895 657.079 145.039C653.923 150.23 651.126 155.653 648.142 160.947C647.017 162.944 645.958 164.974 644.628 166.849C643.903 167.869 643.006 168.778 642.417 169.895C641.547 171.546 641.934 173.051 641.392 174.695C639.053 181.788 635.641 171.886 634.989 169.571C634.248 166.938 632.46 164.886 631.301 162.43C630.343 160.401 629.69 157.387 627.379 156.432C625.485 155.65 623.045 156.723 621.113 156.828C617.562 157.021 613.986 156.733 610.42 156.955C607.085 157.163 603.758 157.483 600.425 157.687C597.088 157.891 593.756 157.327 590.463 157.678C584.555 158.309 578.514 158.207 572.618 159.081C565.7 160.104 558.853 161.196 551.915 162.048C553.527 165.097 556.869 166.419 559.511 168.594C561.872 170.539 563.742 172.782 566.12 174.632C568.534 176.509 569.968 179.286 571.965 181.542C573.923 183.751 575.735 185.604 577.449 188.077C585.725 200.014 594.261 211.512 601.087 224.414C604.542 230.945 607.841 237.932 610.202 244.938C612.733 252.453 613.976 260.512 615.48 268.282C616.229 272.155 616.622 275.424 615.801 279.319C615.585 280.246 615.361 281.172 615.128 282.095C614.408 283.2 614.674 283.917 615.928 284.246C616.661 285.314 617.662 285.715 617.725 287.176C617.774 288.286 617.157 289.573 616.201 290.199C614.355 291.407 614.355 289.775 612.453 290.137C611.739 290.523 611.026 290.908 610.313 291.293C609.937 290.72 609.549 290.154 609.152 289.595C607.939 288.442 606.974 288.547 605.389 288.267C606.195 297.544 604.91 305.828 602.868 314.878C601.885 319.23 600.201 323.49 599.353 327.85C598.405 332.72 600.476 334.938 603.681 338.187C602.868 338.611 601.443 339.073 600.772 339.707C599.704 340.718 599.977 340.842 599.978 342.425C599.979 345.322 599.424 348.178 598.968 351.028C598.126 356.304 597.356 361.765 595.539 366.817C592.239 375.994 586.905 385.524 581.471 393.607C578.43 398.13 575.381 403.269 571.569 407.172C567.744 411.089 563.952 415.041 560.135 418.969C552.624 426.702 544.415 432.044 535.416 437.833C531.853 440.127 528.099 442.639 525.034 445.494C521.919 448.395 517.777 450.426 514.054 452.533C512.393 453.474 511.211 454.824 509.418 455.596C507.734 456.32 506.557 456.556 505.144 457.506C501.638 459.864 497.852 461.879 493.992 463.657C489.284 465.824 484.651 468.347 479.816 470.197C477.613 471.04 475.541 471.959 473.407 472.945C471.098 474.012 468.607 474.712 466.238 475.849C464.237 476.81 462.21 477.368 460.173 478.153C458.509 478.795 457.203 479.833 455.507 480.504C451.983 481.896 448.776 482.645 445.353 484.286C440.804 486.466 435.414 487.483 430.623 489.051C425.273 490.804 419.724 492.547 414.234 493.789C411.898 494.318 409.908 495.01 407.652 495.81C406.182 496.332 404.497 496.618 402.868 497.113C398.369 498.485 393.871 499.807 389.348 500.974C380.51 503.253 371.481 505.99 362.91 509.084C358.416 510.707 353.857 512.66 349.546 514.725C344.672 517.06 339.421 518.407 334.529 520.719C325.08 525.183 315.663 529.778 306.323 534.465C301.418 536.926 296.582 539.462 291.793 542.139C290.056 543.111 288.155 543.511 286.429 544.464C284.171 545.71 282.319 547.539 280.006 548.774C271.093 553.535 261.997 558.019 253.81 564.042C249.526 567.194 244.922 570.422 241.22 574.26C239.998 575.526 237.881 577.486 237.66 579.324C237.334 582.042 237.639 579.541 238.58 581.217C239.884 581.376 240.178 581.877 239.468 582.719C239.139 583.114 238.719 583.316 238.207 583.324C236.561 583.657 233.481 581.913 232.158 581.183C229.866 579.919 228.649 578.322 227.176 576.201C223.978 571.599 220.858 566.956 217.565 562.418C214.602 558.338 211.703 553.846 208.333 550.098C206.048 547.558 205.876 548.667 203.335 550.1C201.444 551.165 199.247 551.62 197.287 552.623C189.82 556.448 181.611 559.273 173.952 561.939C172.208 562.546 171.278 563.509 169.745 564.348C167.793 565.416 165.32 565.939 163.232 566.698C157.48 568.789 151.757 570.96 146.046 573.16C141.636 574.861 137.399 576.2 133.948 579.337C132.574 580.585 130.911 581.48 129.493 582.743C127.841 584.211 125.607 586.601 123.527 587.432L122.26 588.421C121.403 587.825 120.546 587.23 119.686 586.637C118.834 586.047 117.981 585.459 117.13 584.867C114.994 583.383 112.874 581.877 110.751 580.373C105.936 576.961 101.09 573.582 96.6117 569.729C88.6561 562.888 80.4007 556.414 72.0819 550.007C63.3509 543.282 54.8386 536.245 45.808 529.924C37.623 524.195 28.6929 519.357 20.7568 513.31C16.7623 510.266 12.7776 507.203 8.69894 504.255C8.47693 504.095 5.15824 502.059 5.12722 501.832C5.06846 501.416 6.16055 500.33 6.48295 499.98C8.00927 498.321 9.70043 496.844 11.221 495.166C18.3082 487.351 27.5616 487.624 37.3423 487.255C41.7776 487.088 46.5875 489.133 50.8 490.525C55.9511 492.228 60.9202 494.727 65.8958 496.885C76.1499 501.333 86.7331 505.133 97.0908 509.253C101.164 510.872 105.221 511.662 109.362 512.775C113.563 513.906 117.89 512.828 122.384 512.909C124.716 512.951 126.92 513.087 129.268 512.955C130.662 512.877 132.269 512.612 133.646 512.636C134.761 512.655 135.92 513.116 136.946 512.999C141.441 512.49 146.189 511.776 150.825 511.191C155.428 510.611 160.177 510.323 164.72 509.414C167.007 508.957 169.264 508.311 171.464 507.535C173.374 506.862 176.846 506.097 178.413 504.733C179.816 503.513 179.203 503.497 178.421 501.506C178.111 500.719 177.791 499.526 177.333 498.768C176.093 496.719 174.895 496.075 175.616 493.511C176.887 488.993 181.219 486.108 184.927 483.882C193.28 478.871 200.92 472.442 209.715 468.191C227.838 459.431 244.355 448.052 262.029 438.432C281.457 427.858 299.835 415.45 319.532 405.323C337.868 395.896 356.119 386.414 374.606 377.284C383.633 372.828 393.843 368.749 402.034 362.906C397.496 362.343 392.945 361.615 388.391 361.212C386.279 361.025 384.141 361.198 382.041 360.863C379.692 360.487 377.471 359.537 375.127 359.142C371.096 358.462 367.471 357.08 363.436 356.57C359.11 356.024 354.873 354.752 350.527 354.396C341.435 353.651 333.23 350.298 325.26 346.072C323.287 345.026 321.666 345.624 319.775 344.912C318.734 344.522 317.628 342.958 316.458 342.118C313.237 339.805 310.471 337.074 307.41 334.547C300.973 348.992 288.334 358.817 276.273 368.507C270.164 373.414 263.533 377.574 257.361 382.389C252.576 386.122 248.23 389.464 243.123 392.432C238.218 395.281 233.61 399.129 228.934 402.551C225.765 404.871 222.05 406.621 218.68 408.636C215.926 410.281 210.55 412.736 209.799 415.72C209.184 418.159 210.383 421.062 206.662 419.94C203.329 418.937 200.913 415.237 198.972 412.631C193.952 405.888 189.27 398.916 184.609 391.924C182.106 396.81 177.788 400.328 173.797 403.951C171.372 406.152 168.855 408.194 166.235 410.159C164.965 411.112 163.681 412.047 162.408 412.998C161.907 413.373 160.771 413.95 160.446 414.479C159.687 415.716 160.148 415.156 160.266 416.652C160.451 418.995 161.233 420.839 159.907 423.084C158.661 425.193 155.945 426.093 154.042 427.533C149.514 430.96 144.752 434.603 139.728 437.279C138.588 437.886 137.51 438.413 136.448 439.156C134.675 440.396 134.999 440.846 133.212 439.658C130.418 437.797 128.005 434.71 125.484 432.467C120.201 427.767 114.86 423.127 109.45 418.575C99.1404 409.898 88.5263 401.654 78.3447 392.822C68.6693 384.43 58.2969 377.206 48.3081 369.227C45.568 367.039 42.8615 364.806 40.1574 362.573C37.7496 360.585 33.8423 358.395 32.0614 355.851C29.4748 352.157 39.5926 347.109 42.6452 346.357C47.9089 345.062 54.7153 345.803 59.9872 346.865C65.5212 347.979 71.1563 351.706 76.3237 354.027C82.1485 356.643 88.0807 358.905 93.9484 361.375C96.5652 362.476 99.3395 363.355 101.769 364.839C104.346 366.413 106.647 368.208 109.388 369.529C112.547 371.048 115.829 372.467 119.151 373.592C120.656 374.101 122.276 374.613 123.858 374.818C126.097 375.11 125.794 374.078 127.654 373.502C129.235 373.012 129.61 374.306 131.032 374.666C132.371 375.005 133.371 374.662 134.53 373.942C137.115 372.338 139.415 370.126 142 368.456C144.398 366.906 147.041 365.458 149.289 363.703C150.292 362.921 151.033 361.85 152.02 361.056C153.603 359.782 154.231 360.287 156.078 359.411C157.589 358.693 158.96 357.358 160.397 356.473C161.289 355.924 163.453 355.23 164.028 354.341C165.54 352.008 162.96 350.387 160.649 351.075C160.303 349.06 158.526 344.275 159.294 342.385C159.973 340.714 161.755 341.027 163.255 340.142C168.89 336.815 173.048 330.77 178.32 326.861C183.29 323.176 187.675 318.777 192.598 315.024C196.816 311.809 201.425 308.669 205.265 305.202C209.806 301.103 215.619 297.914 220.555 294.255C225.655 290.476 230.394 286.271 235.439 282.449C240.293 278.772 245.06 274.93 250.048 271.43C254.531 268.283 259.23 265.41 263.619 262.22C266.024 260.474 268.653 258.939 271.398 257.792C274.127 256.651 276.515 255.314 279.18 254.085C284.476 251.644 291.373 249.957 297.132 249.257C303.464 248.488 309.823 247.799 316.215 247.793C319.62 247.791 322.928 248.439 326.313 248.644C329.422 248.832 332.785 249.619 335.873 249.515C337.271 249.469 338.486 248.877 339.84 249.068C340.971 249.227 341.954 249.91 343.167 250.029C345.868 250.295 348.584 250.029 351.315 250.379C357.589 251.18 363.871 252.323 370.159 252.96C376.857 253.638 383.498 253.766 390.162 254.909C396.673 256.025 403.226 257.181 409.7 258.472C423.459 261.214 437.361 263.892 450.902 267.964C454.068 268.916 457.252 269.821 460.294 271.126C461.771 271.759 463.19 272.526 464.73 272.999C466.935 273.677 467.369 273.934 468.506 272.084C470.461 268.899 471.539 264.686 472.958 261.221C474.361 257.792 476.065 254.337 476.879 250.756C474.513 250.381 471.528 251.109 469.087 251.193C466.102 251.295 463.15 251.231 460.168 251.213C454.158 251.177 449.459 249.402 443.773 247.538C438.98 245.967 432.599 245.066 428.943 241.468C426.982 239.54 426.33 239.2 423.384 239.546C420.411 239.895 417.475 240.495 414.474 240.595C403.163 240.97 391.903 242.944 380.541 243.334C377.467 243.439 369.779 244.896 370.283 239.683C370.387 238.601 371.216 237.662 371.378 236.548C371.551 235.354 371.252 234.142 371.065 232.975C370.621 230.214 370.156 227.454 369.713 224.692C359.352 228.017 348.86 230.711 338.302 233.345C333.924 234.437 326.89 236.949 322.365 235.572C317.991 234.241 320.525 228.078 321.887 225.129C313.197 227.112 303.928 230.356 295.066 231.1C292.37 231.327 289.746 231.923 289.119 228.664C288.619 226.067 290.495 222.891 291.451 220.61C284.651 220.003 277.608 220.061 278.888 211.344C280.061 203.345 286.705 201.753 293.779 200.292C302.51 198.487 311.427 197.886 320.215 196.426C327.862 195.155 336.204 193.738 344.013 194.379C348.147 194.718 352.306 194.796 356.438 195.178C358.388 195.359 360.263 195.661 362.15 196.193C363.891 196.683 366.326 198.202 368.11 198.229C370.803 198.271 374.05 194.629 376.947 193.788C380.535 192.745 384.401 192.555 388.109 192.3C392.311 192.012 396.519 191.851 400.718 191.51C401.675 191.433 405.293 191.67 406.049 191.109C407.149 190.292 406.417 186.101 406.34 184.38C406.269 182.788 406.576 179.805 405.472 179.181C404.435 178.595 401.414 179.399 400.394 179.562C396.165 180.239 392.147 180.162 387.933 179.99C385.987 179.91 384.118 180.429 382.191 180.173C380.124 179.9 378.042 179.204 375.983 178.817C371.522 177.979 367.459 176.936 363.615 174.437C360.241 172.244 356.248 170.759 354.362 166.918C352.981 164.105 352.42 158.677 356.481 157.878C353.715 153.889 351.807 149.408 350.341 144.799C350.075 143.963 349.899 142.704 349.501 141.975C348.097 139.398 349.4 141.684 347.397 140.653C345.418 139.635 343.991 138.83 342.444 137.059C339.978 134.236 338.94 130.761 338.628 127.083C338.206 122.087 337.415 116.453 338.145 111.482C339.408 102.872 345.701 96.4029 352.095 91.1955C355.566 88.3682 360.136 87.3152 364.208 85.5996C368.138 83.9427 372.528 82.2058 376.669 81.8172C380.406 81.4663 384.05 80.246 387.791 79.7539C392.933 79.0764 398.081 79.3294 403.249 79.1237C405.627 79.0291 408 78.6936 410.368 78.4381C411.705 78.2937 413.965 78.4479 415.19 77.9182C417.194 77.0497 416.111 78.8732 416.827 76.2172C418.189 71.1649 419.3 66.4268 421.363 61.5173C423.284 56.9433 425.618 52.57 428.702 48.6595C431.595 44.9915 435.346 42.3086 438.754 39.1752C441.279 36.8538 444.143 34.757 447.024 32.8797C448.671 31.8064 450.506 31.2261 452.114 30.2784C454.113 29.1031 455.876 28.2118 458.123 27.4919C462.947 25.9476 467.734 24.3079 472.858 24.3887C478.381 24.4752 483.918 23.1896 489.295 24.8196C499.28 27.847 504.172 38.6683 504.005 48.6057C507.42 47.7535 510.405 46.113 514.022 45.9726C517.354 45.8436 521.313 46.1325 524.586 46.7512C530.938 47.9519 537.471 51.4828 541.258 56.8339C544.87 61.9377 545.411 68.7138 543.191 74.504C542.128 77.2758 540.442 79.7416 538.647 82.0833C537.331 83.8006 534.394 85.7016 534.256 88.0025C558.841 80.5709 583.526 75.3324 608.958 71.9419C621.851 70.2238 634.764 71.0841 647.669 70.1022C653.182 69.6826 659.173 70.2695 664.871 70.2915C667.278 70.3013 669.15 69.9667 670.894 68.4093C672.661 66.834 674.072 64.9046 676.13 67.1785C676.656 67.7588 676.766 69.1627 677.473 69.5994C678.33 70.1283 680.822 69.7651 681.847 69.8279C685.431 70.0467 688.928 70.6547 692.447 71.355C698.903 72.6406 705.318 73.94 711.698 75.5716C723.844 78.6789 735.83 81.6842 747.802 85.3727C760.017 89.1362 772.362 93.7796 783.625 99.8718C789.08 102.822 794.529 106.506 799.545 110.156C801.877 111.854 803.967 113.69 805.994 115.737C808.163 117.926 810.815 119.402 812.962 121.607C817.632 126.402 822.284 131.489 826.521 136.684C828.733 139.396 830.765 142.257 832.732 145.148C834.12 147.176 837.76 150.89 836.919 153.51C836.478 154.909 834.911 155.888 833.483 155.545C833.001 155.431 832.61 154.81 832.201 154.751C830.814 154.556 832.071 154.069 830.463 154.723C827.255 156.023 826.235 158.631 822.162 158.038C815.243 157.028 808.734 153.76 802.44 150.91C800.643 157.783 800.388 164.908 798.814 171.863C797.28 178.648 794.721 185.119 791.632 191.342C788.922 196.803 785.442 202.622 780.645 206.525C776.985 209.502 767.952 213.201 765.264 206.862C764.122 204.169 765.821 199.985 766.301 197.214C766.947 193.495 767.659 189.766 768.047 186.01C768.362 182.958 768.521 179.888 768.815 176.833C769.069 174.205 769.771 168.563 768.293 166.241C767.402 164.842 767.325 166.215 766.806 167.612C766.178 169.305 765.656 170.985 765.196 172.729C764.218 176.436 763.337 180.167 762.412 183.887C760.76 190.533 758.941 197.033 755.498 203.008C752.44 208.315 748.137 214.136 741.598 215.005C738.536 215.412 734.545 214.012 732.208 211.949C729.586 209.635 730.369 205.819 730.39 202.673Z" fill="#FFBFBF"/>
<path fill-rule="evenodd" clip-rule="evenodd" d="M581.066 474.047C584.66 473.338 587.685 470.47 590.62 468.315C594.363 465.567 597.914 462.572 601.549 459.685C608.398 454.245 614.612 448.278 620.522 441.79C632.181 428.988 640.959 412.51 644.949 395.674C646.968 387.155 649.465 377.173 648.319 368.37C647.92 365.311 647.313 364.751 644.314 364.403C642.96 364.246 639.523 363.857 638.304 364.389C635.143 365.77 633.437 371.646 632.5 374.599C629.732 383.318 628.103 392.347 625.601 401.138C623.149 409.754 619.197 418.496 615.289 426.553C606.593 444.481 594.507 459.478 581.066 474.047ZM652.356 375.071C650.207 399.483 643.429 422.742 628.232 442.401C621.009 451.746 612.514 459.876 603.306 467.261C593.799 474.887 584.089 482.069 573.301 487.756C570.431 489.27 567.556 490.779 564.65 492.222C563.038 493.023 558.971 495.971 557.113 495.505C555.624 495.131 555.235 493.979 555.003 492.48C554.482 489.117 556.667 487.438 558.876 485.278C567.753 476.6 576.657 467.891 584.956 458.66C601.346 440.429 613.659 418.598 620.503 395.042C622.611 387.789 624.493 380.455 626.768 373.254C628.154 368.867 630.12 361.057 634.726 358.87C637.196 357.697 640.075 358.838 642.672 358.135C645.108 357.476 646.723 356.131 648.799 358.387C652.443 362.345 652.605 370.11 652.356 375.071Z" fill="#FFBFBF"/>
<path fill-rule="evenodd" clip-rule="evenodd" d="M3.02826 515.926C1.20892 516.571 1.13302 517.21 0.299668 515.338C-0.119865 514.395 -0.00641169 513.103 0.0923502 512.122C0.329052 509.775 1.56479 507.606 2.58016 505.525C12.1363 513.408 22.059 520.512 32.3057 527.477C43.2642 534.925 53.7272 543.206 64.0915 551.457C73.3726 558.846 82.7655 566.016 91.9495 573.497C96.3791 577.106 101.429 579.902 105.64 583.621C109.043 586.626 114.686 587.973 117.587 591.508C112.99 594.255 106.853 596.467 101.759 594.091C96.1391 591.469 91.8287 588.051 86.8278 584.498C84.251 582.668 81.5715 581.006 78.9539 579.235C76.653 577.676 75.0279 575.403 72.6984 573.942C67.8028 570.87 62.7806 567.486 58.1356 563.979C53.364 560.377 48.0896 557.511 43.4862 553.683C38.7669 549.758 33.4844 547.158 28.5569 543.584C18.1143 536.012 8.91883 527.495 3.02826 515.926Z" fill="#FFBFBF"/>
<path fill-rule="evenodd" clip-rule="evenodd" d="M284.771 113.84C284.641 114.537 284.511 115.234 284.381 115.932C284.46 115.95 290.709 103.878 291.744 102.42C295.256 97.4779 299.825 93.3658 304.23 89.2382C313.561 80.495 324.482 73.438 333.626 64.5388C336.634 61.6111 342.025 57.175 340.835 52.2247C339.652 47.3045 329.668 48.3044 326.249 49.7279C320.889 51.9602 316.535 56.6289 312.541 60.6969C308.184 65.1347 303.792 69.5226 300.099 74.5448C296.118 79.9604 292.338 85.8256 289.898 92.1105C287.165 99.1511 286.097 106.437 284.771 113.84ZM286.823 135.44C282.582 136.747 287.898 137.631 286.237 139.896C284.416 142.381 281.353 134.726 280.895 133.28C278.196 124.74 279.403 114.365 280.877 105.695C281.622 101.321 282.102 96.8747 283.106 92.548C284.086 88.329 286.219 84.3197 288.189 80.4819C292.134 72.803 297.357 65.6489 303.286 59.3877C309.232 53.1062 315.859 46.8213 323.706 42.9541C330.189 39.7603 340.465 41.9763 343.5 48.9525C346.6 56.0813 342.407 63.8467 337.447 68.8591C330.978 75.3961 323.929 81.8891 316.662 87.5258C312.928 90.4234 309.798 93.9274 306.17 96.9506C302.309 100.169 298.968 103.406 296.113 107.568C293.347 111.601 290.501 115.63 288.704 120.209C286.736 125.222 286.823 130.136 286.823 135.44Z" fill="#FFBFBF"/>
<path fill-rule="evenodd" clip-rule="evenodd" d="M117.217 442.86C107.473 436.586 97.6965 431.078 89.2112 423.076C80.8332 415.176 73.5134 406.267 64.189 399.413C59.5366 395.993 54.7349 392.783 50.1649 389.251C45.8275 385.899 40.8421 383.027 36.9218 379.204C31.6965 374.106 21.9133 364.634 28.5891 357.033C36.8753 366.888 48.2443 374.656 58.6094 382.137C69.5385 390.026 79.5697 399.229 89.9368 407.824C99.9231 416.103 109.876 424.458 119.621 432.956C122.18 435.189 124.648 437.534 127.237 439.73C127.554 439.999 130.237 441.699 130.237 442.151C130.238 443.237 128.158 443.914 127.416 444.216C126.247 444.693 123.083 445.878 121.757 445.477C121.061 445.267 121.049 444.7 120.548 444.364C120.26 443.82 119.924 443.308 119.542 442.827C118.766 442.839 117.992 442.851 117.217 442.86Z" fill="#FFBFBF"/>
<path fill-rule="evenodd" clip-rule="evenodd" d="M690.836 333.466C683.89 333.287 673.317 333.267 673.706 342.752C673.899 347.448 676.445 350.898 678.537 354.915C680.734 359.137 682.362 363.498 683.007 368.23C685.615 387.384 678.618 406.097 672.29 423.803C685.881 412.834 695.696 397.571 700.849 380.841C703.348 372.728 704.32 362.3 703.513 353.852C703.108 349.625 701.549 345.836 699.672 342.07C698.729 340.178 697.787 338.017 696.283 336.486C694.777 334.951 692.69 334.441 690.836 333.466ZM666.606 434.774C662.118 427.395 669.183 416.529 671.493 409.334C674.255 400.731 676.804 391.774 677.984 382.801C679.22 373.402 677.624 366.095 673.268 357.793C669.372 350.371 667.06 340.487 671.39 332.634C673.135 329.474 675.71 329.085 678.771 327.824C682.529 326.278 683.564 323.661 688.176 324.075C696.404 324.814 700.211 332.618 703.272 339.267C710.409 354.767 708.469 374.77 702.382 390.334C698.879 399.289 694.884 408.588 688.936 416.214C686.019 419.953 682.591 423.195 679.034 426.314C675.186 429.688 671.738 433.754 666.606 434.774Z" fill="#FFBFBF"/>
<path fill-rule="evenodd" clip-rule="evenodd" d="M196.732 165.669C185.884 167.849 175.985 172.738 174.247 184.929C172.668 196.009 180.215 206.259 189.482 211.445C199.505 217.055 212.064 217.987 222.051 211.77C232.565 205.224 234.95 192.105 228.551 181.814C221.411 170.329 209.449 166.939 196.732 165.669ZM203.703 160.354C216.62 162.247 228.611 171.44 232.962 183.821C237.448 196.584 233.326 210.616 221.451 217.61C197.45 231.744 165.372 208.189 171.165 181.115C172.635 174.241 176.812 168.918 182.486 164.893C188.751 160.449 196.326 160.328 203.703 160.354Z" fill="#FFBFBF"/>
<path fill-rule="evenodd" clip-rule="evenodd" d="M662.971 30.7426C647.406 23.7052 631.841 16.6679 616.277 9.63048C615.638 16.6858 615 23.7403 614.361 30.7957C614.188 32.7048 613.481 35.302 613.782 37.1858C614.105 39.1961 613.417 38.9815 616.038 38.6958C619.389 38.3293 622.752 37.5017 626.069 36.9099C632.032 35.8456 638.374 35.5419 644.211 33.9764C647.189 33.1774 650.042 33.077 653.065 32.5938C656.385 32.0632 659.617 31.0805 662.971 30.7426ZM610.32 44.3815C610.32 36.4341 611.203 28.5935 611.93 20.6828C612.585 13.5654 612.837 6.78109 615.16 0C617.331 3.94149 623.34 5.51677 627.059 7.54506C632.183 10.3398 637.64 12.3974 642.885 14.9432C648.037 17.4433 653 20.3139 658.157 22.8082C660.773 24.0734 663.428 25.2536 666.038 26.5285C667.672 27.3268 671.547 28.6115 672.564 30.0937C675.65 34.5927 665.087 35.0277 663.048 35.4244C656.934 36.6169 650.749 37.2886 644.646 38.5146C638.956 39.6589 633.256 40.7208 627.545 41.7582C621.894 42.785 616.071 44.3815 610.32 44.3815Z" fill="#FFBFBF"/>
<path fill-rule="evenodd" clip-rule="evenodd" d="M130.403 241.129C136.531 240.491 142.634 239.574 148.755 238.968C154.552 238.394 159.68 237.784 164.975 235.128C157.743 232.947 150.494 230.882 143.2 228.912C139.583 227.935 135.973 226.901 132.339 225.988C129.528 225.281 127.078 224.875 125.997 221.807C124.739 218.235 128.237 218.776 130.417 219.684C133.424 220.935 136.699 221.713 139.815 222.753C146.771 225.075 153.769 227.212 160.79 229.323C162.973 229.979 175.619 232.407 171.063 236.626C169.113 238.432 164.761 239.424 162.377 240.721C159.319 242.384 155.99 243.047 152.588 243.709C145.497 245.088 138.139 245.618 130.961 246.814C127.296 247.426 123.631 248.037 119.966 248.648C117.819 249.006 116.992 248.971 116.431 246.576C116.023 244.836 116.555 243.095 116.947 241.41C117.941 237.127 119.047 232.866 120.142 228.609C120.558 226.985 121.295 219.844 122.744 219.063C126.03 217.291 123.495 227.176 123.25 228.387C122.328 232.953 121.233 237.487 120.74 242.12C123.968 241.828 127.187 241.525 130.403 241.129Z" fill="#FFBFBF"/>
<path fill-rule="evenodd" clip-rule="evenodd" d="M217.295 277.48C218.511 280.533 216.492 281.216 214.042 282.274C210.863 283.646 207.737 285.094 204.501 286.33C197.693 288.928 190.836 291.34 184.19 294.347C171.515 300.079 158.669 305.583 146.191 311.721C143.09 313.247 139.987 314.767 136.858 316.236C133.623 317.755 129.912 320.313 126.451 321.181C123.432 321.939 123.117 319.789 124.906 317.809C127.212 315.255 130.778 313.348 133.675 311.573C145.597 304.265 158.608 298.317 171.629 293.29C186.679 287.478 201.77 281.903 217.295 277.48Z" fill="#FFBFBF"/>
<path fill-rule="evenodd" clip-rule="evenodd" d="M250.389 104.257C249.953 94.9737 251.194 85.6649 250.454 76.4057C237.724 87.6907 243.996 105.131 251.319 117.375L250.389 104.257ZM255.899 103.727C255.98 108.262 256.237 112.794 255.796 117.306C255.333 122.043 257.555 124.482 260.451 127.971C257.992 130.467 252.348 124.647 250.79 122.931C247.582 119.399 245.194 114.706 243.07 110.464C238.544 101.428 235.428 91.753 239.05 81.8319C240.392 78.1549 242.035 73.1556 245.589 71.0147C249.492 68.664 252.478 71.9794 254.097 75.3896C258.051 83.71 255.037 94.7958 255.899 103.727Z" fill="#FFBFBF"/>
<path fill-rule="evenodd" clip-rule="evenodd" d="M390.753 565.196C396.623 565.661 402.405 566.119 408.275 566.491C407.262 558.445 406.248 550.398 405.235 542.351C401.839 543.138 398.443 543.924 395.046 544.709C393.441 545.08 390.978 545.178 389.557 545.98C389.026 546.102 388.494 546.225 387.963 546.349C387.949 547.393 387.937 548.437 387.927 549.482C387.887 552.572 387.799 555.659 387.67 558.747C387.617 560.041 387.165 561.935 387.474 563.217C386.925 564.513 387.274 565.064 388.526 564.869C389.268 564.978 390.01 565.087 390.753 565.196ZM386.712 571.013C382.111 568.722 383.369 561.722 383.376 557.266C383.382 554.432 383.582 551.616 383.656 548.785C383.708 546.839 383.263 544.431 383.932 542.552C385.123 539.208 390.95 539.298 393.946 539.533C396.168 539.706 398.027 539.594 400.304 539.448C401.427 539.376 402.679 539.59 403.782 539.258C404.02 539.186 406.264 537.622 406.164 537.618C410.189 537.772 410.243 547.422 410.504 549.871C411.15 555.907 411.734 561.953 412.26 568.001C412.399 569.602 412.994 571.411 411.474 572.325C410.102 573.149 406.468 572.334 404.951 572.288C398.838 572.103 392.759 571.15 386.712 571.013Z" fill="#FFBFBF"/>
<path fill-rule="evenodd" clip-rule="evenodd" d="M673.923 212.439C676.583 214.833 675.305 217.303 674.434 220.293C673.91 222.088 671.032 227.981 671.826 229.66C672.745 231.601 677.056 232.079 678.9 232.692C682.111 233.759 685.336 234.832 688.375 236.337C689.723 237.005 694.587 238.541 695.499 239.789C696.021 240.504 696.212 241.063 695.819 241.985C695.129 243.603 694.146 242.746 692.465 242.4C684.785 240.813 677.171 238.784 670.049 235.437C668.063 240.046 666.381 244.754 664.702 249.483C664.21 250.869 663.739 254.018 661.869 254.242C659.589 254.515 659.558 251.46 659.71 249.812C659.93 247.406 661.177 244.841 661.93 242.563C662.551 240.682 664.729 236.767 664.461 234.829C664.277 233.496 663.464 233.589 662.016 233.065C660.647 232.57 659.277 232.078 657.909 231.577C655.716 230.775 653.532 229.97 651.397 229.019C650.226 228.496 647.775 227.886 646.927 226.802C646.435 226.173 645.886 223.908 646.508 223.281C647.96 221.813 657.617 225.765 659.603 226.305C660.92 226.663 662.244 226.936 663.522 227.406C664.006 227.585 664.579 228.309 665.102 228.336C667.324 228.449 667.5 226.741 668.189 224.908C669.79 220.65 671.528 216.306 673.923 212.439Z" fill="#FFBFBF"/>
<path fill-rule="evenodd" clip-rule="evenodd" d="M120.221 297.158C119.036 294.254 131.607 290.747 133.94 289.769C139.636 287.385 145.738 285.943 151.635 284.122C157.434 282.331 163.208 280.403 168.912 278.331C170.676 277.689 183.378 271.505 184.042 272.409C186.243 275.401 159.589 284.801 156.992 285.736C144.931 290.079 132.479 293.413 120.221 297.158Z" fill="#FFBFBF"/>
<path fill-rule="evenodd" clip-rule="evenodd" d="M660.878 70.1152C657.619 70.1479 652.92 71.0718 649.93 69.7495C653.579 69.8712 657.229 69.9936 660.878 70.1152Z" fill="#FFBFBF"/>
<path fill-rule="evenodd" clip-rule="evenodd" d="M203.703 160.354L196.457 160.328C198.875 159.767 201.291 159.428 203.703 160.354Z" fill="#FFBFBF"/>
<path fill-rule="evenodd" clip-rule="evenodd" d="M581.016 158.419C582.725 158.41 584.434 158.401 586.131 158.391C584.418 158.401 582.717 158.41 581.016 158.419Z" fill="#FFBFBF"/>
<path fill-rule="evenodd" clip-rule="evenodd" d="M730.39 202.673C730.377 204.5 730.366 206.328 730.35 208.148C730.362 206.318 730.376 204.495 730.39 202.673Z" fill="#FFBFBF"/>
<path fill-rule="evenodd" clip-rule="evenodd" d="M393.947 539.532C392.133 539.664 390.318 539.794 388.505 539.925C390.321 539.794 392.133 539.663 393.947 539.532Z" fill="#FFBFBF"/>
<path fill-rule="evenodd" clip-rule="evenodd" d="M404.172 191.23C402.329 191.379 400.486 191.529 398.645 191.679C400.487 191.528 402.33 191.379 404.172 191.23Z" fill="#FFBFBF"/>
<path fill-rule="evenodd" clip-rule="evenodd" d="M594.86 157.817C596.164 157.815 597.468 157.812 598.762 157.81C597.454 157.813 596.157 157.816 594.86 157.817Z" fill="#FFBFBF"/>
<path fill-rule="evenodd" clip-rule="evenodd" d="M332.481 194.796C330.861 194.942 329.239 195.088 327.62 195.234C329.24 195.088 330.861 194.942 332.481 194.796Z" fill="#FFBFBF"/>
<path fill-rule="evenodd" clip-rule="evenodd" d="M404.059 79.1188C402.438 79.1286 400.817 79.1384 399.197 79.1482C400.813 78.2912 402.435 78.5124 404.059 79.1188Z" fill="#FFBFBF"/>
<path fill-rule="evenodd" clip-rule="evenodd" d="M108.207 359.446C106.858 359.374 105.76 360.029 104.999 358.742C106.244 357.772 106.962 358.89 108.207 359.446Z" fill="#FFBFBF"/>
<path fill-rule="evenodd" clip-rule="evenodd" d="M358.282 251.205L354.073 250.731L358.282 251.205Z" fill="#FFBFBF"/>
<path fill-rule="evenodd" clip-rule="evenodd" d="M386.712 571.014C387.642 571.035 388.571 571.055 389.49 571.077C388.557 571.055 387.634 571.034 386.712 571.014Z" fill="#FFBFBF"/>
<path fill-rule="evenodd" clip-rule="evenodd" d="M602.664 72.7614C601.216 72.8911 599.766 73.0209 598.318 73.1507C599.767 73.0201 601.216 72.8911 602.664 72.7614Z" fill="#FFBFBF"/>
<path fill-rule="evenodd" clip-rule="evenodd" d="M143.546 512.243C142.155 512.249 140.764 512.255 139.373 512.26C140.765 512.255 142.156 512.249 143.546 512.243Z" fill="#FFBFBF"/>
<path fill-rule="evenodd" clip-rule="evenodd" d="M31.6929 487.577C30.2882 487.579 28.8844 487.581 27.4805 487.584C28.8852 487.581 30.2882 487.579 31.6929 487.577Z" fill="#FFBFBF"/>
<path fill-rule="evenodd" clip-rule="evenodd" d="M386.603 192.389C385.177 192.529 383.751 192.669 382.325 192.809C383.752 192.669 385.177 192.529 386.603 192.389Z" fill="#FFBFBF"/>
<path fill-rule="evenodd" clip-rule="evenodd" d="M346.817 194.703C345.414 194.541 344.012 194.379 342.61 194.218C344 194.49 345.544 193.416 346.817 194.703Z" fill="#FFBFBF"/>
<path fill-rule="evenodd" clip-rule="evenodd" d="M473.88 251.019C474.753 250.92 475.979 250.614 476.879 250.757C476.762 251.271 474.215 251.017 473.88 251.019Z" fill="#FFBFBF"/>
<path fill-rule="evenodd" clip-rule="evenodd" d="M384.885 361.074C385.826 361.092 386.768 361.11 387.699 361.126C386.755 361.109 385.82 361.091 384.885 361.074Z" fill="#FFBFBF"/>
<path fill-rule="evenodd" clip-rule="evenodd" d="M299.88 248.991C298.506 249.124 297.132 249.257 295.758 249.39C297.133 249.257 298.506 249.124 299.88 248.991Z" fill="#FFBFBF"/>
<path fill-rule="evenodd" clip-rule="evenodd" d="M145.995 244.307C146.744 244.327 147.494 244.348 148.233 244.368C147.48 244.348 146.738 244.327 145.995 244.307Z" fill="#FFBFBF"/>
<path fill-rule="evenodd" clip-rule="evenodd" d="M348.555 250.026C347.38 250.003 346.204 249.979 345.029 249.956C346.204 249.979 347.38 250.003 348.555 250.026Z" fill="#FFBFBF"/>
<path fill-rule="evenodd" clip-rule="evenodd" d="M130.403 241.129C129.215 241.276 128.026 241.422 126.839 241.568C128.029 241.421 129.215 241.275 130.403 241.129Z" fill="#FFBFBF"/>
<path fill-rule="evenodd" clip-rule="evenodd" d="M293.421 231.033C294.155 231.062 294.888 231.092 295.613 231.124C294.875 231.096 294.148 231.065 293.421 231.033Z" fill="#FFBFBF"/>
<path fill-rule="evenodd" clip-rule="evenodd" d="M349.411 354.469C350.156 354.42 350.901 354.372 351.636 354.322C350.889 354.37 350.15 354.42 349.411 354.469Z" fill="#FFBFBF"/>
<path fill-rule="evenodd" clip-rule="evenodd" d="M406.417 257.812C405.219 257.663 404.02 257.513 402.823 257.364C404.021 257.513 405.219 257.663 406.417 257.812Z" fill="#FFBFBF"/>
<path fill-rule="evenodd" clip-rule="evenodd" d="M117.217 442.86C117.995 442.85 118.773 442.84 119.542 442.827C118.761 442.837 117.988 442.849 117.217 442.86Z" fill="#FFBFBF"/>
<path fill-rule="evenodd" clip-rule="evenodd" d="M53.3512 346.205C52.1122 346.081 50.8732 345.955 49.6333 345.83C50.8723 345.955 52.1114 346.081 53.3512 346.205Z" fill="#FFBFBF"/>
<path fill-rule="evenodd" clip-rule="evenodd" d="M26.9136 487.746C25.6958 487.887 24.478 488.028 23.2594 488.168C24.4789 488.027 25.6958 487.887 26.9136 487.746Z" fill="#FFBFBF"/>
<path fill-rule="evenodd" clip-rule="evenodd" d="M690.774 158.22C690.678 159.273 690.583 160.326 690.485 161.375C690.58 160.32 690.677 159.271 690.774 158.22Z" fill="#FFBFBF"/>
<path fill-rule="evenodd" clip-rule="evenodd" d="M150.824 511.191C149.599 511.332 148.374 511.473 147.15 511.613C148.375 511.472 149.6 511.332 150.824 511.191Z" fill="#FFBFBF"/>
<path fill-rule="evenodd" clip-rule="evenodd" d="M138.805 512.406C137.565 513.272 136.326 513.321 135.086 512.409C136.325 512.407 137.565 512.406 138.805 512.406Z" fill="#FFBFBF"/>
<path fill-rule="evenodd" clip-rule="evenodd" d="M115.298 513.441C114.096 513.442 112.894 513.443 111.693 513.444C112.895 513.443 114.097 513.442 115.298 513.441Z" fill="#FFBFBF"/>
<path fill-rule="evenodd" clip-rule="evenodd" d="M255.899 103.727C255.796 102.66 255.693 101.594 255.59 100.531C255.693 101.6 255.796 102.663 255.899 103.727Z" fill="#FFBFBF"/>
<path fill-rule="evenodd" clip-rule="evenodd" d="M387.192 79.9057C385.984 80.055 384.776 80.2036 383.569 80.3521C384.777 80.2036 385.985 80.055 387.192 79.9057Z" fill="#FFBFBF"/>
<path fill-rule="evenodd" clip-rule="evenodd" d="M391.473 79.3409C390.246 79.478 389.017 79.6159 387.79 79.7539C389.018 79.6159 390.246 79.478 391.473 79.3409Z" fill="#FFBFBF"/>
<path fill-rule="evenodd" clip-rule="evenodd" d="M200.807 221.488C201.563 221.477 202.319 221.465 203.064 221.454C202.305 221.465 201.556 221.477 200.807 221.488Z" fill="#FFBFBF"/>
<path fill-rule="evenodd" clip-rule="evenodd" d="M310.177 209.674C314.186 209.012 318.194 208.792 322.202 209.671L310.177 209.674Z" fill="#FFBFBF"/>
<path fill-rule="evenodd" clip-rule="evenodd" d="M417.09 164.58C417.924 162.401 418.131 161.583 420.169 160.455C419.321 162.573 419.188 163.706 417.09 164.58Z" fill="#FFBFBF"/>
<path fill-rule="evenodd" clip-rule="evenodd" d="M514.845 380.256C514.926 382.522 515.006 384.788 515.086 387.051C515.005 384.784 514.925 382.52 514.845 380.256Z" fill="#FFBFBF"/>
<path fill-rule="evenodd" clip-rule="evenodd" d="M660.221 75.3488C658.408 75.3896 656.595 75.4312 654.79 75.472C656.606 75.4312 658.414 75.3896 660.221 75.3488Z" fill="#FFBFBF"/>
<path fill-rule="evenodd" clip-rule="evenodd" d="M418.642 420.527C418.705 422.416 418.768 424.305 418.831 426.193C418.767 424.302 418.704 422.415 418.642 420.527Z" fill="#FFBFBF"/>
<path fill-rule="evenodd" clip-rule="evenodd" d="M196.42 360.01C198.251 360.023 200.084 360.036 201.915 360.049C200.083 360.036 198.251 360.023 196.42 360.01Z" fill="#FFBFBF"/>
<path fill-rule="evenodd" clip-rule="evenodd" d="M352.127 262.984C351.023 262.995 349.92 263.005 348.827 263.019C349.934 263.009 351.03 262.997 352.127 262.984Z" fill="#FFBFBF"/>
<path fill-rule="evenodd" clip-rule="evenodd" d="M348.531 202.941C347.624 202.91 346.715 202.879 345.818 202.852C346.729 202.884 347.63 202.912 348.531 202.941Z" fill="#FFBFBF"/>
<path fill-rule="evenodd" clip-rule="evenodd" d="M218.726 359.439C220.158 359.299 221.59 359.159 223.022 359.018C221.59 359.159 220.158 359.299 218.726 359.439Z" fill="#FFBFBF"/>
<path fill-rule="evenodd" clip-rule="evenodd" d="M187.518 360.082C188.921 360.061 190.324 360.039 191.727 360.017C190.324 360.039 188.921 360.061 187.518 360.082Z" fill="#FFBFBF"/>
<path fill-rule="evenodd" clip-rule="evenodd" d="M202.497 360.046C203.95 359.919 205.403 359.793 206.857 359.666C205.404 359.792 203.95 359.919 202.497 360.046Z" fill="#FFBFBF"/>
<path fill-rule="evenodd" clip-rule="evenodd" d="M207.795 362.349C207.073 362.345 206.351 362.34 205.638 362.336C206.364 362.341 207.079 362.345 207.795 362.349Z" fill="#FFBFBF"/>
<path fill-rule="evenodd" clip-rule="evenodd" d="M514.211 329.887C514.319 328.822 514.427 327.757 514.534 326.696C514.427 327.762 514.319 328.824 514.211 329.887Z" fill="#FFBFBF"/>
<path fill-rule="evenodd" clip-rule="evenodd" d="M297.286 222.253C298.196 222.331 299.108 222.408 300.021 222.486C299.003 222.539 297.984 222.59 296.967 222.642C296.973 222.433 297.079 222.304 297.286 222.253Z" fill="#FFBFBF"/>
<path fill-rule="evenodd" clip-rule="evenodd" d="M531.395 401.344C531.337 400.374 531.278 399.404 531.222 398.44C531.28 399.412 531.338 400.378 531.395 401.344Z" fill="#FFBFBF"/>
<path fill-rule="evenodd" clip-rule="evenodd" d="M313.642 218.553C312.91 218.568 312.178 218.582 311.456 218.596C312.191 218.581 312.916 218.567 313.642 218.553Z" fill="#FFBFBF"/>
<path fill-rule="evenodd" clip-rule="evenodd" d="M581.432 340.958C582.651 341.101 583.871 341.244 585.089 341.386C583.87 341.244 582.651 341.101 581.432 340.958Z" fill="#FFBFBF"/>
<path fill-rule="evenodd" clip-rule="evenodd" d="M328.169 260.613C327.418 260.625 326.668 260.635 325.927 260.648C326.681 260.638 327.425 260.626 328.169 260.613Z" fill="#FFBFBF"/>
<path fill-rule="evenodd" clip-rule="evenodd" d="M284.771 113.84C285.558 114.26 285.149 116.108 284.381 115.932C284.511 115.234 284.641 114.537 284.771 113.84Z" fill="#FFBFBF"/>
<path fill-rule="evenodd" clip-rule="evenodd" d="M690.836 333.466C690.112 333.447 689.389 333.428 688.675 333.41C689.401 333.429 690.119 333.448 690.836 333.466Z" fill="#FFBFBF"/>
<path fill-rule="evenodd" clip-rule="evenodd" d="M250.389 104.257C250.312 102.629 250.236 101.001 250.16 99.378C250.236 101.008 250.313 102.632 250.389 104.257Z" fill="#FFBFBF"/>
<path fill-rule="evenodd" clip-rule="evenodd" d="M387.412 564.706C388.527 564.869 389.641 565.033 390.755 565.196C389.639 565.033 388.526 564.869 387.412 564.706Z" fill="#FFBFBF"/>
<path fill-rule="evenodd" clip-rule="evenodd" d="M380.044 145.512C376.114 146.321 372.077 146.744 368.24 147.934C367.282 148.232 364.14 150.057 362.993 149.576C361.25 148.844 362.132 146.966 362.866 145.963C364.83 143.283 368.342 141.781 371.564 141.815C374.779 141.849 379.193 141.731 380.044 145.512Z" fill="#FFBFBF"/>
<path fill-rule="evenodd" clip-rule="evenodd" d="M369.124 152.704C373.452 155.733 376.758 157.225 377.124 150.417C381.814 151.056 379.712 158.609 376.163 159.179C372.301 159.798 369.724 155.94 369.124 152.704Z" fill="#FFBFBF"/>
</svg>
